<svg width="64" height="32" viewBox="0 0 64 32" fill="none" xmlns="http://www.w3.org/2000/svg">
<g clip-path="url(#clip0_62_778)">
<path d="M22.0001 26.0001C22.0001 23.8784 22.843 21.8435 24.3433 20.3432C25.8436 18.8429 27.8784 18.0001 30.0001 18.0001C32.1219 18.0001 34.1567 18.8429 35.657 20.3432C37.1573 21.8435 38.0001 23.8784 38.0001 26.0001H36.0001C36.0001 24.4088 35.368 22.8827 34.2428 21.7575C33.1175 20.6322 31.5914 20.0001 30.0001 20.0001C28.4088 20.0001 26.8827 20.6322 25.7575 21.7575C24.6323 22.8827 24.0001 24.4088 24.0001 26.0001H22.0001ZM30.0001 17.0001C26.6851 17.0001 24.0001 14.3151 24.0001 11.0001C24.0001 7.68509 26.6851 5.00009 30.0001 5.00009C33.3151 5.00009 36.0001 7.68509 36.0001 11.0001C36.0001 14.3151 33.3151 17.0001 30.0001 17.0001ZM30.0001 15.0001C32.2101 15.0001 34.0001 13.2101 34.0001 11.0001C34.0001 8.79009 32.2101 7.00009 30.0001 7.00009C27.7901 7.00009 26.0001 8.79009 26.0001 11.0001C26.0001 13.2101 27.7901 15.0001 30.0001 15.0001ZM38.2841 18.7031C39.6895 19.336 40.8821 20.3613 41.7187 21.6558C42.5553 22.9503 43.0003 24.4588 43.0001 26.0001H41.0001C41.0004 24.8441 40.6667 23.7126 40.0392 22.7417C39.4117 21.7708 38.5172 21.0018 37.4631 20.5271L38.2831 18.7031H38.2841ZM37.5961 7.41309C38.6036 7.82839 39.4651 8.53363 40.0711 9.43932C40.6772 10.345 41.0005 11.4103 41.0001 12.5001C41.0005 13.8724 40.4878 15.1953 39.5627 16.2089C38.6375 17.2225 37.3668 17.8536 36.0001 17.9781V15.9651C36.7411 15.859 37.4285 15.5181 37.9614 14.9925C38.4944 14.467 38.8448 13.7844 38.9613 13.045C39.0777 12.3056 38.9541 11.5484 38.6085 10.8844C38.2629 10.2205 37.7136 9.68484 37.0411 9.35609L37.5961 7.41309Z" fill="white"/>
</g>
<defs>
<clipPath id="clip0_62_778">
<rect width="24" height="24" fill="white" transform="translate(20.0001 4.00009)"/>
</clipPath>
</defs>
</svg>
