<svg width="64" height="30" viewBox="0 0 64 30" fill="none" xmlns="http://www.w3.org/2000/svg">
<g clip-path="url(#clip0_143_458)">
<rect width="64" height="30" rx="15" fill="#3CDD3C"/>
<g clip-path="url(#clip1_143_458)">
<path d="M22 25C22 22.8783 22.8429 20.8434 24.3431 19.3431C25.8434 17.8429 27.8783 17 30 17C32.1217 17 34.1566 17.8429 35.6569 19.3431C37.1571 20.8434 38 22.8783 38 25H36C36 23.4087 35.3679 21.8826 34.2426 20.7574C33.1174 19.6321 31.5913 19 30 19C28.4087 19 26.8826 19.6321 25.7574 20.7574C24.6321 21.8826 24 23.4087 24 25H22ZM30 16C26.685 16 24 13.315 24 10C24 6.685 26.685 4 30 4C33.315 4 36 6.685 36 10C36 13.315 33.315 16 30 16ZM30 14C32.21 14 34 12.21 34 10C34 7.79 32.21 6 30 6C27.79 6 26 7.79 26 10C26 12.21 27.79 14 30 14ZM38.284 17.703C39.6893 18.3359 40.882 19.3612 41.7186 20.6557C42.5552 21.9502 43.0002 23.4587 43 25H41C41.0002 23.844 40.6666 22.7125 40.0391 21.7416C39.4116 20.7707 38.5171 20.0017 37.463 19.527L38.283 17.703H38.284ZM37.596 6.413C38.6035 6.8283 39.465 7.53354 40.071 8.43923C40.6771 9.34492 41.0004 10.4102 41 11.5C41.0004 12.8723 40.4877 14.1952 39.5625 15.2088C38.6374 16.2224 37.3667 16.8535 36 16.978V14.965C36.7409 14.8589 37.4283 14.518 37.9613 13.9925C38.4943 13.4669 38.8447 12.7843 38.9612 12.0449C39.0776 11.3055 38.954 10.5483 38.6084 9.88435C38.2628 9.22041 37.7134 8.68475 37.041 8.356L37.596 6.413V6.413Z" fill="white"/>
</g>
</g>
<defs>
<clipPath id="clip0_143_458">
<rect width="64" height="30" rx="15" fill="white"/>
</clipPath>
<clipPath id="clip1_143_458">
<rect width="24" height="24" fill="white" transform="translate(20 3)"/>
</clipPath>
</defs>
</svg>
