<svg width="168" height="54" viewBox="0 0 168 54" fill="none" xmlns="http://www.w3.org/2000/svg">
<path d="M43.8286 22.1314C41.9269 19.2871 45.0909 16.0576 43.7712 13.0657C42.8367 10.7214 39.8695 9.95912 38.1973 8.36074C36.5252 6.76236 35.8366 3.72133 33.5005 2.79509C31.1645 1.86885 28.5333 3.38526 26.23 3.40985C23.9267 3.43444 21.2463 1.81967 18.9676 2.78689C16.6889 3.75412 15.8528 6.69678 14.2544 8.36074C12.656 10.0247 9.61499 10.7214 8.68875 13.0657C7.7625 15.41 9.27892 18.033 9.30351 20.3363C9.17236 21.8445 7.36906 23.5577 7.87726 25.2544C8.38546 26.9511 10.656 27.5085 11.533 28.6889C11.7578 29.2825 11.8609 29.9153 11.8363 30.5496C11.8363 32.1889 12.2872 34.0906 14.2298 34.3939C15.0089 34.5548 15.7475 34.8715 16.4011 35.3251C17.0547 35.7786 17.6098 36.3597 18.0331 37.0333C18.5554 37.8889 19.2888 38.5961 20.1629 39.087C21.037 39.5778 22.0225 39.836 23.025 39.8366C23.2424 39.8366 23.4509 39.7502 23.6046 39.5965C23.7583 39.4428 23.8447 39.2343 23.8447 39.0169C23.8447 38.7995 23.7583 38.591 23.6046 38.4373C23.4509 38.2836 23.2424 38.1972 23.025 38.1972C22.3019 38.1969 21.591 38.0105 20.9608 37.6559C20.3306 37.3013 19.8022 36.7905 19.4266 36.1726C18.8746 35.3116 18.1546 34.5708 17.3095 33.9947C16.4644 33.4187 15.5117 33.0191 14.5085 32.8201C13.3691 32.6234 13.5167 31.6725 13.4101 30.5086C13.443 29.614 13.2662 28.7242 12.8937 27.9102C12.2544 26.6151 9.91827 25.9675 9.39367 24.779C9.41549 24.0948 9.63468 23.4316 10.0248 22.8691C10.4939 22.0953 10.7746 21.2221 10.8445 20.3199C10.9265 18.2297 9.41007 15.5412 10.1068 13.6805C10.8035 11.8198 13.8937 11.0247 15.32 9.50829C16.7462 7.99188 17.6397 5.1066 19.4922 4.28691C21.3528 3.59838 24.0414 5.1066 26.1316 5.03282C28.2218 5.1066 30.9022 3.59838 32.771 4.28691C34.6153 5.1066 35.4186 8.07385 36.9432 9.5001C38.4678 10.9263 41.3367 11.828 42.1564 13.6805C42.8449 15.5412 41.3367 18.2297 41.4187 20.3199C41.4886 21.2221 41.7693 22.0953 42.2384 22.8691C42.6285 23.4316 42.8477 24.0948 42.8695 24.779C42.3449 25.9757 40.0088 26.6069 39.3695 27.9102C38.997 28.7242 38.8202 29.614 38.8531 30.5086C38.7465 31.6315 38.8531 32.5824 37.8285 32.8037C36.8189 33.0324 35.8645 33.4587 35.0204 34.058C34.1763 34.6573 33.4592 35.4178 32.9104 36.2955C32.539 36.921 32.0129 37.4403 31.3826 37.8035C30.7524 38.1667 30.0393 38.3616 29.312 38.3693C29.0946 38.3693 28.8861 38.4557 28.7324 38.6094C28.5786 38.7631 28.4923 38.9716 28.4923 39.189C28.4923 39.4064 28.5786 39.6149 28.7324 39.7686C28.8861 39.9223 29.0946 40.0087 29.312 40.0087C30.3417 40.0235 31.3571 39.766 32.2553 39.2622C33.1535 38.7584 33.9026 38.0263 34.4268 37.1398C35.3242 35.7507 36.7364 34.7748 38.3531 34.4267C40.2138 34.0742 40.6318 32.2299 40.6236 30.6151C40.59 29.959 40.6933 29.303 40.9269 28.6889C41.3174 28.2104 41.7995 27.8147 42.3449 27.5249C44.7548 26.1725 45.304 24.5905 43.8286 22.1314Z" fill="#C0DC8F"/>
<path d="M28.7791 32.2136C29.4318 32.2059 30.0725 32.0374 30.6444 31.7228C31.2164 31.4082 31.7018 30.9574 32.0578 30.4103C32.6559 29.58 33.526 28.9854 34.5169 28.7299C37.1399 27.984 36.1563 25.4512 36.4759 23.6151C37.0661 22.4184 38.771 21.4758 38.7301 19.8938C38.6235 16.8609 35.5907 15.4675 34.9103 12.6724C33.2218 7.50016 30.7054 8.45099 26.2299 8.9346C21.7626 8.45919 19.238 7.49196 17.5003 12.6806C16.8199 15.4593 13.7871 16.8691 13.6805 19.8938C13.6396 21.4676 15.3199 22.4266 15.9265 23.6069C16.2789 25.4922 15.2543 27.9922 17.9265 28.7381C18.9322 28.9949 19.8165 29.5951 20.4265 30.4349C20.7859 30.9769 21.2727 31.4226 21.8443 31.7327C22.416 32.0428 23.055 32.2079 23.7053 32.2136C23.9227 32.2136 24.1312 32.1272 24.2849 31.9735C24.4386 31.8198 24.525 31.6113 24.525 31.3939C24.525 31.1765 24.4386 30.968 24.2849 30.8143C24.1312 30.6606 23.9227 30.5742 23.7053 30.5742C23.324 30.5666 22.9504 30.4655 22.6174 30.2797C22.2844 30.0939 22.0021 29.8291 21.7954 29.5086C20.9795 28.3395 19.7733 27.4995 18.3937 27.1398C18.1849 27.093 17.9924 26.9911 17.8363 26.8447C17.3199 25.9266 17.9511 24.1069 17.4757 23.025C17.1478 21.902 15.4757 20.9184 15.3199 19.8692C15.3199 18.8282 16.0986 17.8855 16.9183 16.8855C17.8681 15.8291 18.5882 14.5871 19.0331 13.2379C20.4019 8.71329 22.5987 10.4182 26.2299 10.5494C29.8529 10.4182 32.0496 8.71329 33.4267 13.2379C33.8716 14.5871 34.5917 15.8291 35.5415 16.8855C36.3612 17.8855 37.1809 18.8282 37.1809 19.8692C37.0169 20.9266 35.353 21.902 35.0251 23.0332C34.5497 24.0987 35.1726 25.9348 34.6644 26.8365C34.5215 26.9874 34.3354 27.0905 34.1316 27.1316C32.7442 27.4886 31.5311 28.3322 30.7136 29.5086C30.502 29.8338 30.2129 30.1014 29.8725 30.2874C29.532 30.4733 29.1507 30.5719 28.7627 30.5742C28.5453 30.5764 28.3377 30.6649 28.1855 30.8201C28.0333 30.9754 27.9491 31.1847 27.9512 31.4021C27.9534 31.6195 28.0418 31.8271 28.1971 31.9793C28.3524 32.1315 28.5617 32.2158 28.7791 32.2136Z" fill="#C0DC8F"/>
<path d="M42.2303 48.3613H35.4105C31.6631 44.4453 29.5748 39.2321 29.5826 33.8119V31.648C29.5791 30.2116 29.8606 28.7889 30.4107 27.4621C30.9609 26.1353 31.7687 24.9308 32.7875 23.9183C32.9218 23.7615 32.992 23.5598 32.984 23.3535C32.976 23.1472 32.8905 22.9516 32.7445 22.8056C32.5986 22.6596 32.4029 22.5741 32.1966 22.5661C31.9903 22.5581 31.7886 22.6283 31.6318 22.7626C30.4587 23.9252 29.5285 25.3095 28.8953 26.8349C28.262 28.3603 27.9384 29.9964 27.9432 31.648V33.8119C27.9328 39.0494 29.7406 44.1281 33.058 48.181C31.5296 47.9324 30.092 47.2913 28.8858 46.3203C28.1446 45.6897 27.2032 45.3434 26.2301 45.3434C25.2569 45.3434 24.3155 45.6897 23.5743 46.3203C22.3681 47.2913 20.9305 47.9324 19.4021 48.181C22.7195 44.1281 24.5273 39.0494 24.5169 33.8119V31.648C24.5217 29.9964 24.1981 28.3603 23.5648 26.8349C22.9316 25.3095 22.0014 23.9252 20.8283 22.7626C20.6715 22.6283 20.4698 22.5581 20.2635 22.5661C20.0572 22.5741 19.8616 22.6596 19.7156 22.8056C19.5696 22.9516 19.4841 23.1472 19.4761 23.3535C19.4681 23.5598 19.5383 23.7615 19.6726 23.9183C20.6914 24.9308 21.4992 26.1353 22.0494 27.4621C22.5995 28.7889 22.881 30.2116 22.8775 31.648V33.8119C22.8853 39.2321 20.7971 44.4453 17.0496 48.3613H10.2298C10.0124 48.3613 9.80396 48.4476 9.65024 48.6014C9.49652 48.7551 9.41016 48.9636 9.41016 49.181C9.41016 49.3984 9.49652 49.6069 9.65024 49.7606C9.80396 49.9143 10.0124 50.0007 10.2298 50.0007H42.1975C42.3051 50.0028 42.4121 49.9837 42.5124 49.9445C42.6127 49.9053 42.7042 49.8468 42.7819 49.7722C42.8595 49.6976 42.9217 49.6084 42.9649 49.5098C43.0081 49.4112 43.0314 49.305 43.0336 49.1974C43.0357 49.0897 43.0166 48.9827 42.9774 48.8824C42.9382 48.7822 42.8797 48.6906 42.8051 48.613C42.7305 48.5353 42.6413 48.4731 42.5427 48.43C42.4441 48.3868 42.3379 48.3634 42.2303 48.3613ZM23.5415 48.3613C25.9186 46.5088 26.5415 46.517 28.9186 48.3613H23.5415Z" fill="#4CB748"/>
<path d="M61.3592 27.4378C61.3592 28.1273 62.5633 28.4721 64.9713 28.4721C65.5654 28.4721 66.0056 28.4084 66.292 28.2811C67.0452 27.9204 67.9681 27.7401 69.0608 27.7401C70.164 27.7401 70.7157 28.0212 70.7157 28.5834C70.7157 28.8062 70.6202 29.1351 70.4292 29.57C70.2489 29.9943 70.111 30.2542 70.0155 30.3497C69.9307 30.4452 69.5912 30.5778 68.9971 30.7475C68.4031 30.9066 68.0159 30.9968 67.8355 31.018C67.6658 31.0286 67.5491 31.0392 67.4855 31.0498C67.4324 31.0605 67.3635 31.0711 67.2786 31.0817C67.2043 31.0923 67.0293 31.1241 66.7535 31.1771C66.4777 31.2196 66.2761 31.2143 66.1488 31.1612C62.6375 32.8904 60.2241 34.7892 58.9087 36.8578C58.3147 37.7914 58.0176 38.5923 58.0176 39.2606C58.0176 40.3108 58.7443 40.8359 60.1976 40.8359C61.3327 40.8359 62.7754 40.3904 64.5258 39.4993C66.2761 38.6082 67.8249 37.5315 69.1722 36.2691C70.53 34.9961 71.2089 33.8928 71.2089 32.9593C71.2089 32.6623 71.4317 32.5138 71.8773 32.5138C72.9063 32.5138 73.4208 33.1238 73.4208 34.3437C73.4208 34.9165 73.1715 35.6008 72.6729 36.3964C72.1743 37.1814 71.4795 37.9823 70.5884 38.7991C69.6973 39.6054 68.7054 40.3586 67.6128 41.0587C66.5201 41.7588 65.3055 42.3317 63.9688 42.7772C62.6428 43.2228 61.5183 43.4455 60.5954 43.4455C59.6725 43.4455 58.9246 43.3554 58.3518 43.175C57.7896 43.0053 57.2591 42.7454 56.7606 42.3953C55.6785 41.6421 55.1375 40.5018 55.1375 38.9742C55.1375 38.1467 55.3603 37.3087 55.8058 36.46C56.2514 35.6008 56.8348 34.8211 57.5562 34.1209C58.8822 32.8055 60.3037 31.7129 61.8207 30.843C59.6354 30.3444 58.5427 29.2199 58.5427 27.4696C58.5427 25.4964 60.0597 23.6931 63.0937 22.0594C64.7804 21.1577 66.6103 20.5106 68.5834 20.1181C69.5169 19.9271 70.2966 19.8317 70.9225 19.8317C72.1955 19.8317 73.1556 19.9324 73.8027 20.134C74.1952 20.3249 74.5134 20.5955 74.7574 20.9455C75.0014 21.285 75.1234 21.582 75.1234 21.8366C75.1234 22.0806 75.0916 22.3034 75.0279 22.5049C74.9643 22.7065 74.8582 22.8656 74.7097 22.9823C74.4975 23.1414 74.2588 23.2634 73.9936 23.3483C73.7284 23.4331 73.5746 23.4862 73.5321 23.5074C72.7047 23.8575 71.994 24.0325 71.3999 24.0325C70.3391 24.0325 69.7609 23.8946 69.6655 23.6188C69.6867 23.343 69.8034 23.0247 70.0155 22.6641C69.0077 22.7065 67.9628 22.9133 66.8808 23.2846C65.7988 23.6453 64.8599 24.0749 64.0643 24.5735C63.2793 25.0615 62.6322 25.5707 62.123 26.1011C61.6138 26.6315 61.3592 27.0771 61.3592 27.4378ZM83.1114 39.4675C83.663 39.1174 84.0184 38.8787 84.1775 38.7514C84.3366 38.6135 84.5223 38.4544 84.7344 38.274C84.9466 38.0937 85.1216 38.0035 85.2595 38.0035C85.4717 38.0035 85.5778 38.2475 85.5778 38.7355C85.5778 39.2129 85.3391 39.7327 84.8617 40.2949C84.395 40.8465 83.8115 41.3186 83.1114 41.7111C82.4112 42.093 81.6633 42.4272 80.8677 42.7136C79.2871 43.297 77.9399 43.5888 76.826 43.5888C75.7227 43.5888 74.7256 43.2281 73.8345 42.5067C72.9434 41.7748 72.4978 40.8253 72.4978 39.6584C72.4978 38.4809 72.7896 37.3087 73.373 36.1418C73.9565 34.9643 74.7044 33.9353 75.6167 33.0548C76.5396 32.1637 77.6057 31.4424 78.815 30.8907C80.035 30.3391 81.239 30.0633 82.4271 30.0633C83 30.0633 83.5145 30.2277 83.9706 30.5566C84.4268 30.8854 84.6549 31.3363 84.6549 31.9091C84.6549 32.482 84.3684 33.1715 83.7956 33.9777C83.2334 34.7733 82.6605 35.1711 82.0771 35.1711C81.3981 35.1711 81.0587 34.8476 81.0587 34.2005C81.0587 34.0308 81.2178 33.7284 81.536 33.2935C81.8543 32.8585 82.0134 32.5668 82.0134 32.4183C82.0134 32.2592 81.9551 32.1796 81.8384 32.1796C81.2549 32.1796 80.629 32.3812 79.9607 32.7843C79.2924 33.1874 78.6824 33.6117 78.1308 34.0573C77.5898 34.5028 77.0753 35.0014 76.5873 35.553C75.5265 36.7518 74.9961 37.9982 74.9961 39.2924C74.9961 39.8122 75.1605 40.2631 75.4894 40.645C75.8288 41.0163 76.3911 41.2019 77.1761 41.2019C77.9717 41.2019 78.7673 41.1117 79.5629 40.9314C80.3585 40.7405 81.0109 40.5389 81.5201 40.3267C82.0399 40.104 82.5703 39.8175 83.1114 39.4675ZM95.4752 30.8748C95.7935 30.8748 96.117 31.018 96.4459 31.3044C96.7854 31.5909 96.9551 32.0311 96.9551 32.6252C96.9551 33.2086 96.7482 33.9724 96.3345 34.9165C95.9208 35.8501 95.3532 36.8048 94.6319 37.7808C93.9105 38.7461 93.1149 39.6584 92.245 40.5177C91.3858 41.3663 90.4522 42.0665 89.4445 42.6181C88.4473 43.1591 87.5403 43.4296 86.7235 43.4296C85.9066 43.4296 85.2489 43.175 84.7503 42.6658C84.2624 42.146 84.0184 41.43 84.0184 40.5177C84.0184 39.5948 84.2411 38.5764 84.6867 37.4625C85.1428 36.3487 85.7263 35.3674 86.437 34.5187C87.1478 33.6595 87.9169 32.8904 88.7443 32.2114C90.4735 30.8218 91.9904 30.1269 93.2952 30.1269C93.8787 30.1269 94.3189 30.2701 94.616 30.5566C94.7221 30.652 94.7751 30.7369 94.7751 30.8112V30.9066C94.9236 30.8854 95.157 30.8748 95.4752 30.8748ZM93.8681 32.9912H93.7567C93.3854 32.9912 93.1998 32.7206 93.1998 32.1796C92.4254 32.4342 91.6138 32.8798 90.7652 33.5163C89.9165 34.1527 89.158 34.9059 88.4897 35.7758C87.1319 37.5156 86.4423 38.9848 86.4211 40.1835C86.4211 40.7776 86.6386 41.0746 87.0735 41.0746C87.5085 41.0746 88.1556 40.7882 89.0148 40.2153C89.8741 39.6425 90.7228 38.8257 91.5608 37.7648C92.4095 36.704 93.0407 35.7864 93.4544 35.012C93.8787 34.227 94.0909 33.6966 94.0909 33.4208C94.0909 33.1344 94.0166 32.9912 93.8681 32.9912ZM113.138 31.1771L112.947 30.4134C112.947 29.9784 113.095 29.639 113.393 29.395C113.7 29.1404 114.082 29.0131 114.538 29.0131C115.429 29.0131 115.875 29.5806 115.875 30.7157C115.875 31.5325 115.472 32.6623 114.665 34.105C113.859 35.5371 112.905 36.9268 111.801 38.274C110.709 39.6107 109.547 40.7776 108.316 41.7748C107.086 42.7613 106.136 43.2546 105.468 43.2546C104.81 43.2546 104.344 43.0743 104.068 42.7136C103.792 42.3529 103.654 42.0081 103.654 41.6793C103.654 41.3398 103.67 41.0216 103.702 40.7245C103.819 39.6849 104.105 38.6931 104.561 37.7489C103.426 39.2341 102.206 40.5707 100.901 41.7588C99.5965 42.9364 98.5039 43.5251 97.6234 43.5251C97.1991 43.5251 96.8596 43.3978 96.605 43.1432C96.3504 42.8886 96.2231 42.459 96.2231 41.8543C96.2231 41.239 96.5891 40.0933 97.3211 38.4173C98.053 36.7305 98.7532 35.378 99.4215 34.3596C99.1775 34.5081 98.96 34.5824 98.7691 34.5824C98.5887 34.5824 98.3872 34.4816 98.1644 34.28C97.9523 34.0679 97.8462 33.9035 97.8462 33.7868C97.8462 33.6701 97.9257 33.5003 98.0849 33.2776C98.244 33.0548 98.854 32.5085 99.9148 31.6386C100.976 30.7581 101.702 30.3179 102.095 30.3179C102.487 30.3179 102.859 30.3921 103.209 30.5407C103.569 30.6892 103.75 30.896 103.75 31.1612C103.75 31.4158 103.012 32.9275 101.538 35.6962C100.063 38.465 99.326 39.9661 99.326 40.1994C99.326 40.2313 99.3366 40.2472 99.3578 40.2472C99.5806 40.2472 100.689 39.1121 102.684 36.8419C104.688 34.5718 106.264 32.7047 107.409 31.2408C107.569 30.9756 107.807 30.843 108.126 30.843L108.269 30.8589L109.144 30.6839C109.282 30.6839 109.414 30.7369 109.542 30.843C109.68 30.9491 109.749 31.0445 109.749 31.1294C109.749 31.2143 109.558 31.5962 109.176 32.2751C108.804 32.954 108.194 34.2376 107.346 36.1259C106.497 38.0141 106.073 39.3402 106.073 40.104C106.073 40.2949 106.142 40.3904 106.28 40.3904C106.683 40.3904 107.521 39.6637 108.794 38.2104C110.077 36.7465 111.122 35.3462 111.929 34.0095C112.735 32.6729 113.138 31.7288 113.138 31.1771ZM125.454 30.8748C125.772 30.8748 126.096 31.018 126.425 31.3044C126.764 31.5909 126.934 32.0311 126.934 32.6252C126.934 33.2086 126.727 33.9724 126.313 34.9165C125.9 35.8501 125.332 36.8048 124.611 37.7808C123.889 38.7461 123.094 39.6584 122.224 40.5177C121.365 41.3663 120.431 42.0665 119.423 42.6181C118.426 43.1591 117.519 43.4296 116.702 43.4296C115.885 43.4296 115.228 43.175 114.729 42.6658C114.241 42.146 113.997 41.43 113.997 40.5177C113.997 39.5948 114.22 38.5764 114.665 37.4625C115.122 36.3487 115.705 35.3674 116.416 34.5187C117.127 33.6595 117.896 32.8904 118.723 32.2114C120.452 30.8218 121.969 30.1269 123.274 30.1269C123.858 30.1269 124.298 30.2701 124.595 30.5566C124.701 30.652 124.754 30.7369 124.754 30.8112V30.9066C124.902 30.8854 125.136 30.8748 125.454 30.8748ZM123.847 32.9912H123.736C123.364 32.9912 123.179 32.7206 123.179 32.1796C122.404 32.4342 121.593 32.8798 120.744 33.5163C119.895 34.1527 119.137 34.9059 118.469 35.7758C117.111 37.5156 116.421 38.9848 116.4 40.1835C116.4 40.7776 116.617 41.0746 117.052 41.0746C117.487 41.0746 118.134 40.7882 118.994 40.2153C119.853 39.6425 120.702 38.8257 121.54 37.7648C122.388 36.704 123.019 35.7864 123.433 35.012C123.858 34.227 124.07 33.6966 124.07 33.4208C124.07 33.1344 123.995 32.9912 123.847 32.9912ZM131.787 34.3278C134.291 31.4848 136.423 30.0633 138.184 30.0633C138.619 30.0633 138.974 30.1959 139.25 30.4611C139.536 30.7157 139.68 31.0498 139.68 31.4636C139.68 31.8773 139.383 32.5721 138.789 33.5481C138.205 34.5134 137.664 35.3303 137.166 35.9986C136.9 36.338 136.598 36.5078 136.259 36.5078C135.93 36.5078 135.67 36.3858 135.479 36.1418C135.298 35.8978 135.208 35.6114 135.208 35.2825C135.208 34.5506 135.601 33.7231 136.386 32.8002L136.354 32.7684C136.004 32.8002 135.134 33.4897 133.744 34.837C132.365 36.1842 131.188 37.3936 130.212 38.465C129.246 39.5258 128.196 40.82 127.061 42.3476C126.732 42.8037 126.451 43.0318 126.218 43.0318C125.995 43.0318 125.698 42.9629 125.327 42.825C124.945 42.6764 124.717 42.5704 124.643 42.5067C124.558 42.4431 124.515 42.337 124.515 42.1885C124.515 42.04 124.558 41.8702 124.643 41.6793C124.727 41.4777 124.887 41.1966 125.12 40.8359C125.343 40.4752 125.682 39.8918 126.138 39.0856C126.605 38.2793 127.326 37.0594 128.302 35.4257C129.278 33.7921 129.862 32.8055 130.053 32.466C130.456 31.7659 130.785 31.2567 131.039 30.9385C131.517 30.3338 132.323 30.0315 133.458 30.0315C133.713 30.0315 133.84 30.1906 133.84 30.5088C133.84 31.0074 133.378 31.9462 132.455 33.3253L131.787 34.3278ZM151.168 19.1156C151.678 19.1156 152.123 19.2694 152.505 19.5771C152.897 19.8741 153.094 20.3196 153.094 20.9137C153.094 21.5078 152.765 22.4413 152.107 23.7143C151.449 24.9766 150.659 26.2708 149.736 27.5969C148.813 28.9123 147.768 30.3126 146.602 31.7977C144.756 34.1527 142.984 36.2691 141.287 38.1467C141.276 38.274 141.228 38.5127 141.144 38.8628C141.069 39.2023 141.032 39.547 141.032 39.8971C141.032 40.2472 141.191 40.5654 141.51 40.8518C141.838 41.1277 142.242 41.2656 142.719 41.2656C143.196 41.2656 143.705 41.0958 144.246 40.7564C144.798 40.4169 145.275 40.0403 145.679 39.6266C146.739 38.5339 147.397 37.9876 147.652 37.9876C147.906 37.9876 148.034 38.3748 148.034 39.1492V39.4675C148.034 39.8812 147.959 40.1835 147.811 40.3745C146.92 41.4671 145.917 42.2839 144.803 42.825C143.69 43.3554 142.634 43.6206 141.637 43.6206C140.64 43.6206 139.881 43.3182 139.361 42.7136C138.842 42.0983 138.582 41.2603 138.582 40.1994C138.582 38.1308 139.133 35.7015 140.237 32.9116C141.35 30.111 142.602 27.7295 143.992 25.767C147.121 21.3327 149.513 19.1156 151.168 19.1156ZM150.452 21.7571C150.452 21.5979 150.399 21.5184 150.293 21.5184C149.922 21.5184 148.946 22.5792 147.365 24.7008C145.785 26.8225 144.639 28.5145 143.928 29.7769C143.228 31.0392 142.565 32.6252 141.939 34.5346C143.191 33.0495 144.92 30.7369 147.127 27.5969C149.344 24.4462 150.452 22.4996 150.452 21.7571ZM166.365 19.1474C166.566 19.1474 166.725 19.2111 166.842 19.3384C166.959 19.4657 167.017 19.5983 167.017 19.7362C167.017 19.8635 166.911 20.1075 166.699 20.4682C166.497 20.8182 166.025 21.5926 165.283 22.7914C164.54 23.9795 163.962 24.913 163.548 25.5919C161.14 29.5064 159.252 32.8161 157.883 35.5212C156.515 38.2263 155.831 39.86 155.831 40.4222V40.5495C155.831 40.9844 155.99 41.2019 156.308 41.2019C156.626 41.2019 157.008 41.0534 157.454 40.7564C157.91 40.4593 158.308 40.1411 158.647 39.8016C158.987 39.4622 159.326 39.1121 159.666 38.7514C160.016 38.3801 160.228 38.1627 160.302 38.099C160.376 38.0354 160.472 38.0035 160.588 38.0035C160.769 38.0035 160.885 38.1202 160.939 38.3536C160.992 38.5764 161.018 38.8946 161.018 39.3083C161.018 39.7115 160.986 39.9767 160.923 40.104C160.615 40.698 159.936 41.4247 158.886 42.2839C157.846 43.1326 156.86 43.5569 155.926 43.5569C154.335 43.5569 153.539 42.8833 153.539 41.5361C153.539 40.698 153.858 39.6001 154.494 38.2422C153.635 39.3561 152.76 40.3055 151.868 41.0905C150.214 42.5332 148.776 43.2546 147.556 43.2546C146.877 43.2546 146.373 43.0159 146.045 42.5385C145.726 42.0612 145.567 41.3769 145.567 40.4859C145.567 39.5842 145.917 38.5074 146.617 37.2557C147.318 36.0039 148.187 34.8794 149.227 33.8822C150.277 32.8745 151.439 32.0364 152.712 31.3681C153.985 30.6892 155.157 30.3497 156.228 30.3497C156.568 30.3497 156.966 30.5566 157.422 30.9703C157.73 30.4823 158.297 29.5064 159.125 28.0424C161.724 23.6612 163.442 20.988 164.28 20.0226C164.726 19.4392 165.42 19.1474 166.365 19.1474ZM156.451 32.466C154.924 32.8055 153.502 33.5163 152.187 34.5983C150.871 35.6803 149.885 36.8154 149.227 38.0035C148.569 39.181 148.24 39.9448 148.24 40.2949C148.24 40.645 148.315 40.82 148.463 40.82C149.1 40.82 150.675 39.3985 153.189 36.5555C154.441 35.1552 155.528 33.7921 156.451 32.466Z" fill="#3CDD3C"/>
</svg>
