<svg width="50" height="50" viewBox="0 0 50 50" fill="none" xmlns="http://www.w3.org/2000/svg">
<g clip-path="url(#clip0_152_764)">
<rect width="50" height="50" rx="4" fill="white"/>
<path d="M38.5784 45.4902C38.464 45.5719 38.3333 45.6536 38.2189 45.7353C38.0882 45.817 37.9738 45.8987 37.8431 45.9641C37.7287 46.0294 37.6307 46.0948 37.5163 46.1601C37.5 46.1765 37.4836 46.1765 37.4673 46.1928C37.0915 46.4216 36.6993 46.634 36.3072 46.8301C36.1928 46.8954 36.0621 46.9608 35.9477 47.0098C35.9477 47.0098 35.9313 47.0262 35.915 47.0262C35.7843 47.0915 35.6536 47.1569 35.5228 47.2222C35.2614 47.353 34.9836 47.4673 34.7222 47.5817C34.5915 47.6471 34.4444 47.6961 34.3137 47.7451C34.183 47.7941 34.0359 47.8595 33.9052 47.9085C33.7745 47.9575 33.6274 48.0229 33.4967 48.0719C33.4967 48.0719 33.4967 48.0719 33.4804 48.0719C33.3496 48.1209 33.2026 48.17 33.0719 48.219C32.7777 48.317 32.4673 48.4151 32.1732 48.5131C32.0751 48.5458 31.9607 48.5785 31.8627 48.6111C31.5523 48.7092 31.2418 48.7909 30.9313 48.8562C30.817 48.8889 30.7026 48.9052 30.5719 48.9379C30.2777 49.0033 29.9673 49.0686 29.6732 49.134C29.6078 49.1503 29.5588 49.1503 29.4934 49.1667C29.3954 49.183 29.281 49.1994 29.183 49.2157C29.0359 49.232 28.9052 49.2647 28.7581 49.2811C28.6928 49.2974 28.6274 49.2974 28.5621 49.3137C28.4804 49.3301 28.3823 49.3464 28.2843 49.3464C28.0228 49.3791 27.7451 49.4118 27.4836 49.4445C27.4019 49.4608 27.3039 49.4608 27.2222 49.4771H27.2058C27.0915 49.4935 26.9771 49.4935 26.8627 49.5098C26.7483 49.5262 26.634 49.5262 26.5196 49.5262C26.4542 49.5262 26.3725 49.5425 26.3072 49.5425C26.1764 49.5425 26.0621 49.5588 25.9477 49.5588C25.7843 49.5588 25.6372 49.5752 25.4738 49.5752C25.3104 49.5752 25.1634 49.5752 25 49.5752C24.8856 49.5752 24.7712 49.5752 24.6568 49.5752C17.7614 49.4771 11.5686 46.5523 7.14049 41.9118C7.14049 41.9118 7.14049 41.8954 7.12415 41.8954C6.63395 41.4543 7.05879 39.1013 9.03591 37.6144C11.5196 35.7353 17.4673 34.5588 17.4673 34.5588C17.4673 34.5588 19.7712 34.183 28.317 35.9641C33.317 37.0098 37.1241 38.5294 39.2483 42.6471C39.6895 43.4968 40.1307 44.8039 38.5784 45.4902Z" fill="white"/>
<path d="M28.3661 35.7843C31.5033 36.4216 34.853 37.1079 37.4347 39.183C38.3007 39.8856 38.8726 40.9151 39.3465 41.9118C39.5752 42.402 39.804 42.9085 39.9837 43.4477C40.0818 43.8072 40.2288 44.2157 40.1471 44.6405C40.1308 44.7549 40.0327 44.902 39.951 44.9837C39.5752 45.3595 39.1667 45.5883 38.7582 45.8824C36.3563 47.549 33.5948 48.7255 30.7354 49.3464C24.3628 50.7353 17.4674 49.6569 11.8628 46.3072C10.0001 45.1798 8.28438 43.8072 6.81379 42.1896C6.65039 41.9935 6.65039 41.6667 6.65039 41.4543C6.66673 40.9641 6.79745 40.4902 6.96085 40.049C7.353 39.036 7.85954 38.0229 8.72555 37.3203C9.34647 36.8954 10.0164 36.536 10.7027 36.2418C12.8595 35.3268 15.1308 34.6896 17.4674 34.4281C17.6635 34.4118 17.6961 34.6896 17.5001 34.7222C15.2615 35.1798 13.0393 35.866 10.9641 36.7974C10.2125 37.1732 9.41183 37.5 8.80725 38.0883C8.23536 38.7092 7.82686 39.4771 7.50006 40.2615C7.28765 40.7353 7.14059 41.4869 7.20595 41.8628C8.23536 43.0883 9.44451 44.1667 10.7517 45.0981C17.9086 50.0981 28.7746 50.4249 36.389 46.2582C37.0752 45.8824 37.7452 45.4575 38.3824 45.0164C38.6929 44.8039 39.0197 44.6242 39.2648 44.3791C39.2811 44.3628 39.2648 44.3791 39.2648 44.3954C39.2648 44.4118 39.2484 44.4281 39.2484 44.4281C39.2648 44.232 39.1994 43.9706 39.1177 43.7092C38.8236 42.7615 38.3497 41.7647 37.8432 40.8987C37.0425 39.6079 35.6863 38.7909 34.3138 38.1373C33.3661 37.6961 32.3693 37.353 31.3563 37.0262C30.3432 36.6994 29.3138 36.4216 28.2844 36.1765C28.0229 36.1111 28.1046 35.7353 28.3661 35.7843Z" fill="black"/>
<path d="M19.0359 36.0784C19.0359 36.0784 18.7091 34.0523 18.1535 34.1667C16.83 34.4771 12.549 35.3758 9.93459 36.781C9.3627 37.0915 8.9542 37.3366 8.464 37.7941C7.56531 38.6438 6.94439 40.8497 6.19276 43.5294C4.59145 49.2647 2.67969 55.6046 2.67969 55.6046H44.0032C44.0032 55.6046 41.4215 52.5163 40.6045 47.0588C39.8366 41.9281 38.317 40.0817 38.0555 39.7549C37.3366 38.8562 34.0359 37.0425 32.4346 36.3562C29.9836 35.3105 27.5163 37.5 26.8137 37.451C25.5719 37.4183 19.0359 36.0784 19.0359 36.0784Z" fill="white" stroke="black" stroke-width="0.213571" stroke-miterlimit="10" stroke-linecap="round" stroke-linejoin="round"/>
<path d="M10.768 55.6209L10.0327 49.5588" stroke="white" stroke-width="0.125" stroke-miterlimit="10" stroke-linecap="round" stroke-linejoin="round"/>
<path d="M39.3138 47.5001C39.3138 47.5001 38.8236 48.6929 38.9707 49.8857C39.1177 51.0785 39.5426 52.8269 38.938 55.621" fill="black"/>
<path d="M39.3138 47.5001C39.3138 47.5001 38.8236 48.6929 38.9707 49.8857C39.1177 51.0785 39.5426 52.8269 38.938 55.621" stroke="white" stroke-width="0.125" stroke-miterlimit="10" stroke-linecap="round" stroke-linejoin="round"/>
<path d="M17.1404 32.5163C17.1404 32.5163 15.9639 32.9412 15.7515 33.1699C15.5391 33.3987 15.4411 33.5458 15.4411 33.5458C15.4411 33.5458 14.8528 34.1993 14.526 35.7843C14.379 36.4542 14.7221 37.549 14.4607 38.415C13.709 40.817 17.2711 44.5098 23.1535 46.683C27.6143 48.3333 32.5326 46.8301 33.2188 43.7255C33.8724 40.7353 33.4803 39.3791 33.1698 38.415C32.5489 36.5523 32.3528 36.0294 31.5195 35.3105C30.9966 34.8529 30.6371 35.8007 28.6764 36.3399C28.0718 36.5033 27.3365 36.634 26.3888 36.6667C20.7515 36.8791 20.6208 33.4641 19.7711 32.5654C19.575 32.3693 18.4639 32.0425 17.1404 32.5163Z" fill="white"/>
<path d="M17.2386 32.7451C16.8138 32.9085 16.3236 33.0719 15.9478 33.3333C15.8497 33.4314 15.7354 33.5784 15.6373 33.6928C15.3105 34.1177 15.0981 34.6569 14.9347 35.1634C14.755 35.7026 14.6896 36.1928 14.755 36.7647C14.7877 37.2713 14.8367 37.8268 14.7223 38.3333C14.5262 38.9052 14.5752 39.5098 14.804 40.0817C16.1112 43.4477 22.3694 46.6994 25.8497 47.0262C28.3988 47.2876 31.9445 46.585 32.9086 43.9216C33.3988 42.0262 33.5948 39.9673 32.8759 38.1209C32.5981 37.3366 32.3694 36.4706 31.8465 35.8333C31.7648 35.7353 31.6667 35.6373 31.5687 35.5392L31.4216 35.4085C31.3726 35.3758 31.3399 35.3431 31.2909 35.3431C31.0785 35.3105 30.8171 35.5229 30.621 35.6373C29.1504 36.6013 27.3203 36.8464 25.5883 36.7811C23.8563 36.7484 21.9935 36.2255 20.9151 34.7876C20.3759 34.1503 20.1308 33.3333 19.6406 32.6961L19.6243 32.6797L19.5916 32.6634C18.8399 32.3529 17.9576 32.4673 17.2386 32.7451ZM17.1079 32.3856C17.9576 32.0752 19.0197 31.9118 19.8367 32.3693C20.0491 32.5654 20.1798 32.8595 20.3105 33.1209C20.5556 33.6438 20.7844 34.1503 21.1112 34.6079C22.0752 36.0621 23.9053 36.536 25.572 36.536C26.6994 36.5523 27.8596 36.4543 28.9216 36.0948C29.4609 35.915 29.9674 35.6699 30.4413 35.3595C30.768 35.1471 31.2256 34.8203 31.585 35.1634C31.9935 35.4902 32.3367 35.915 32.5654 36.3726C32.9413 37.1732 33.2027 37.9902 33.4805 38.8235C33.9707 40.5392 33.7419 42.3366 33.3498 44.036C32.3367 47.0098 28.5948 47.7778 25.8171 47.4837C22.4184 47.1242 17.402 44.4608 15.3105 41.7484C14.6079 40.817 13.9707 39.6405 14.2811 38.4314C14.4609 37.9085 14.4118 37.353 14.3628 36.7811C14.2811 36.2092 14.3628 35.5882 14.5589 35.0327C14.7223 34.4771 15.0001 33.8562 15.3269 33.4477C15.4903 33.2353 15.6863 32.9902 15.9151 32.8758C16.2909 32.6797 16.6831 32.5 17.1079 32.3856Z" fill="black"/>
<path d="M28.7093 36.5686C27.3041 36.8791 25.8662 36.8791 24.4446 36.7647C22.5492 36.6013 20.6211 35.9804 19.2649 34.5915C18.9217 34.2647 18.6113 33.8726 18.3008 33.5621C18.2028 33.4641 18.2028 33.3007 18.3008 33.2026C18.3989 33.1046 18.5786 33.1046 18.6603 33.219C18.9708 33.6111 19.2322 33.9706 19.5427 34.3137C21.1113 36.0784 23.5786 36.585 25.8498 36.5196C26.7649 36.4869 27.6962 36.4052 28.5786 36.1111C28.9054 35.9968 29.0525 36.4869 28.7093 36.5686Z" fill="white"/>
<path d="M31.6341 34.7222C33.121 35.9641 35.7027 39.2157 35.0818 46.487C34.7714 50.0817 36.5197 51.5687 36.1276 52.1405C36.0622 52.2386 35.9805 52.2876 35.9152 52.3039C35.6374 52.3693 35.3759 52.5 35.2452 52.7615C35.1962 52.8758 35.1145 52.9575 35.0001 53.0229C34.9021 53.0883 34.7877 53.0883 34.6897 53.0719C34.3465 52.9902 33.9707 53.1863 33.7583 53.4804C33.6766 53.5948 33.5786 53.6765 33.4315 53.7092C33.3335 53.7419 33.2354 53.7255 33.1701 53.7092C32.8923 53.6275 32.5818 53.7092 32.3367 53.9053C32.2714 53.9543 32.206 53.987 32.1243 53.987C31.9773 53.987 31.8629 53.9216 31.7648 53.8236C31.5361 53.6111 31.2093 53.5294 30.8825 53.6438C30.8498 53.6602 30.8335 53.6602 30.8008 53.6602C30.572 53.6928 30.3923 53.5131 30.2616 53.2026C30.1308 52.9085 29.8204 52.7778 29.4936 52.8105C29.4282 52.8105 29.3629 52.8105 29.2812 52.7941C28.6439 52.6471 27.8269 51.7647 27.8106 50.6863C27.7942 49.6242 28.0393 47.7778 28.4478 46.9118C29.706 44.2484 30.1635 42.3366 30.2289 40.8987C30.3596 38.268 28.6929 35.9151 28.8563 35.866C30.523 35.5229 31.6341 34.7222 31.6341 34.7222Z" fill="black"/>
<path d="M31.6341 34.4772C32.059 34.7059 32.4021 35.1308 32.7289 35.4902C34.4119 37.5 35.1145 40.1308 35.3106 42.7125C35.376 43.7092 35.3923 44.7223 35.3106 45.719L35.2616 46.4706C35.1472 47.6798 35.2616 48.9216 35.6701 50.0654C35.8335 50.5229 36.0296 50.9641 36.2256 51.4379C36.34 51.6994 36.4217 52.0915 36.1766 52.3203C36.0949 52.4347 35.9152 52.4674 35.7681 52.5164C35.6211 52.5654 35.4903 52.6471 35.4086 52.7778C35.2779 53.0556 34.9838 53.3007 34.657 53.2353C34.4119 53.17 34.1505 53.2844 33.9707 53.4641C33.791 53.7092 33.5459 53.9216 33.2191 53.8726C33.0067 53.8236 32.7943 53.7909 32.5818 53.9053C32.5001 53.9379 32.4348 54.0033 32.3694 54.0523C32.1733 54.1667 31.9282 54.134 31.7485 54.0196C31.6178 53.9379 31.5851 53.8562 31.4707 53.8072C31.3073 53.7255 31.0949 53.7092 30.9152 53.7745C30.5067 53.9053 30.2126 53.5458 30.0818 53.219C29.9675 52.9739 29.657 52.9249 29.4119 52.9576C29.2322 52.9576 29.0524 52.8922 28.889 52.8105C28.1864 52.4183 27.7289 51.683 27.6309 50.8824C27.5818 50.1144 27.6799 49.3628 27.7943 48.6111C27.876 48.121 27.9903 47.6144 28.1537 47.1406C28.3335 46.6667 28.5622 46.2419 28.7583 45.768C29.4936 43.9706 30.1799 42.0262 30.0492 40.0491C29.9184 38.6928 29.4119 37.4183 28.7747 36.2255C28.7093 36.0785 28.5459 35.817 28.7747 35.7353C29.6733 35.5229 30.5394 35.1471 31.3073 34.6242C31.438 34.5752 31.5197 34.4772 31.6341 34.4772ZM31.6178 34.9674C31.6505 34.9674 31.6831 34.9674 31.7158 34.951C31.7648 34.9183 31.7322 34.9347 31.7322 34.9347C31.291 35.1798 30.8335 35.3922 30.3596 35.5719C29.9021 35.7353 29.2485 35.9314 28.8727 35.9968C28.9054 35.9804 28.938 35.9477 28.938 35.8987C28.9707 36.0294 29.1341 36.3236 29.1831 36.4543C30.9969 40.0654 30.7191 42.304 29.1831 45.9478C29.0034 46.3889 28.7583 46.8464 28.5786 47.304C28.2354 48.317 28.0884 49.4281 28.0557 50.5066C28.0067 51.3399 28.5296 52.3203 29.3465 52.5491C29.3792 52.5491 29.3956 52.5491 29.4282 52.5491C29.6897 52.5327 29.9511 52.5817 30.1635 52.7451C30.2779 52.8268 30.376 52.9576 30.4413 53.1046C30.5067 53.2517 30.5884 53.4477 30.7518 53.4151C31.1113 53.3007 31.5197 53.3497 31.8139 53.6111C31.9282 53.7255 32.0099 53.7909 32.157 53.7419C32.3531 53.5948 32.5818 53.4804 32.8433 53.4641C33.0557 53.4314 33.2681 53.5948 33.4642 53.4641C33.5622 53.3987 33.6113 53.3007 33.6929 53.219C33.938 52.9739 34.2975 52.8105 34.657 52.8922C34.8858 52.9576 35.0165 52.7778 35.0982 52.5981C35.2616 52.353 35.5394 52.2223 35.8171 52.1569C36.0622 52.0589 35.9479 51.7811 35.8825 51.5687C35.7028 51.1275 35.4903 50.6536 35.3269 50.1798C35.1635 49.7059 35.0328 49.2157 34.9675 48.7092C34.8041 47.7288 34.8858 46.6994 34.9511 45.7027C35.0165 44.7223 35.0001 43.7255 34.9348 42.7451C34.7224 40.2125 33.9707 37.5817 32.2224 35.67C32.0753 35.4902 31.8792 35.3268 31.7158 35.1634C31.6995 35.0981 31.6668 35.0491 31.6178 34.9674Z" fill="white"/>
<path d="M29.2646 45.2288C26.3725 45.3432 23.3006 44.853 20.9476 43.0883C20.8496 43.0229 20.964 42.8595 21.062 42.9412C22.8104 44.1831 24.9672 44.6733 27.0914 44.7876C27.794 44.8203 28.5293 44.8203 29.2156 44.7549C29.5587 44.7223 29.6077 45.1961 29.2646 45.2288Z" fill="black"/>
<path d="M30.6538 36.3235C31.3891 37.0915 31.7812 38.17 31.7322 39.232C31.7322 39.2811 31.6505 39.2974 31.6342 39.2484C31.4054 38.5131 31.144 37.8105 30.8009 37.1405C30.6865 36.9118 30.5721 36.683 30.4741 36.4543C30.4577 36.3399 30.5884 36.2582 30.6538 36.3235Z" fill="black"/>
<path d="M32.4348 53.8072C31.7812 51.8791 32.108 49.7712 32.5328 47.8268C32.925 45.9314 33.2681 43.9543 33.0394 42.0261C33.0067 41.8954 33.2191 41.8301 33.2518 41.9771C33.5296 43.9543 33.2518 45.9477 32.8923 47.8922C32.6962 48.8562 32.5492 49.8203 32.5328 50.7843C32.5165 51.7157 32.5655 52.6961 32.9086 53.5784C33.023 53.9052 32.5818 54.1176 32.4348 53.8072Z" fill="black"/>
<path d="M14.7222 36.5033C15.2941 37.7124 15.9804 38.9379 16.9608 39.8529C17.0425 39.9183 16.9444 40.0654 16.8464 39.9837C15.7353 39.1177 14.951 37.9248 14.2647 36.7157C14.134 36.4216 14.5915 36.1928 14.7222 36.5033Z" fill="black"/>
<path d="M30.1471 40.1961C29.2484 42.5817 26.6994 42.4346 24.7386 41.5033C24.6732 41.4706 24.6405 41.4052 24.6732 41.3399C24.7059 41.2745 24.7713 41.2418 24.8366 41.2745C25.2941 41.4542 25.768 41.6176 26.2418 41.6993C27.6634 42.0098 29.1994 41.5523 29.6732 40.0654C29.7549 39.7386 30.2288 39.8856 30.1471 40.1961Z" fill="black"/>
<path d="M29.9018 40.1307C29.5587 41.8137 27.3365 42.8268 23.5946 41.3072C19.7057 39.7386 18.0227 35.9967 17.5979 34.8856C19.9018 30.5719 18.3005 27.5817 18.3005 27.5817C23.611 27.1242 28.2515 33.3333 28.2515 33.3333L28.9705 36.4052C29.0358 36.6667 29.1665 36.8954 29.3626 37.0588C29.7057 37.6634 30.1142 39.0523 29.9018 40.1307Z" fill="white"/>
<path d="M17.5162 34.9346C17.8267 34.4608 18.0228 33.9052 18.1535 33.366C18.3986 32.2386 18.4803 31.0948 18.4966 29.951V29.5262C18.4476 29.1013 18.3005 28.6601 18.1371 28.268C17.9247 27.7451 18.6927 27.4183 18.9378 27.9412C18.9705 28.0065 18.9705 28.1209 18.9705 28.1863C19.0195 30.4085 19.1175 33.268 17.7123 35.1144C17.6143 35.2124 17.4182 35.0654 17.5162 34.9346Z" fill="black"/>
<path d="M28.4313 33.3007C28.6764 33.4477 28.7581 33.6438 28.7908 33.8399C28.8888 34.2321 28.8561 34.6569 28.9542 35.0654C29.0359 35.4575 29.281 35.8334 29.3463 36.2419C29.428 36.6667 29.6731 37.5654 29.7712 38.0066C29.8038 38.1046 29.7385 38.219 29.6241 38.2353C29.5587 38.2517 29.5097 38.2353 29.4607 38.2026C29.2483 38.0229 29.1502 37.8432 29.0195 37.6144C28.8071 37.2222 28.66 36.8628 28.5293 36.4216C28.4149 36.0294 28.464 35.6046 28.3659 35.1961C28.2842 34.8039 28.0555 34.4281 27.9738 34.0196C27.9248 33.8236 27.9084 33.6111 28.0555 33.366C28.1535 33.268 28.3169 33.2353 28.4313 33.3007Z" fill="black"/>
<path d="M29.6077 37.6144C26.4868 37.451 23.9378 36.4706 21.4541 32.0425C23.5456 33.8889 26.0129 34.5915 28.611 34.9183L28.9541 36.4216C29.0195 36.683 29.4116 37.451 29.6077 37.6144Z" fill="black"/>
<path d="M29.4771 37.0098C30.0326 38.0556 30.3594 39.3628 30.0163 40.5229C29.7549 41.3399 29.0032 41.9445 28.1862 42.1732C26.2908 42.6798 24.1013 41.8791 22.4182 40.9804C20.3431 39.8203 18.8071 37.8758 17.8267 35.7516C17.7614 35.5882 17.9901 35.4575 18.0882 35.6209C18.4313 36.3072 18.8235 36.9771 19.2647 37.5817C19.7058 38.2026 20.2124 38.7745 20.7843 39.2811C22.4509 40.7843 24.7058 41.7157 26.9607 41.7157C29.281 41.6503 30.1633 40.4249 29.6241 38.1699C29.5424 37.8105 29.4117 37.4347 29.232 37.1242C29.1339 36.9935 29.379 36.8464 29.4771 37.0098Z" fill="black"/>
<path d="M35.8006 17.3856C36.0947 18.7582 35.8659 19.6732 35.7352 23.4641C35.6045 27.1896 34.526 32.451 33.2025 33.7745C32.1894 34.7713 28.9378 35.5556 26.0456 34.8203C24.5751 34.4445 23.3332 33.5948 22.3202 32.9902C21.0456 32.2222 19.9345 29.853 19.0195 28.3334C18.3005 27.1405 18.3659 28.5785 17.4345 27.549C16.1437 26.1438 14.5914 23.317 15.3594 18.317C16.6012 10.2124 23.0228 9.26472 27.7777 10.1634C32.5653 11.0621 35.0162 13.7745 35.8006 17.3856Z" fill="white"/>
<path d="M18.2515 28.9869C17.8757 28.366 17.3855 27.8105 16.9443 27.2222C16.2907 26.3235 15.8006 25.2941 15.4738 24.232C14.0522 19.6896 14.9182 13.7418 19.2156 11.0621C23.1208 8.57844 30.7025 9.47713 33.8724 12.8758C35.0653 14.1013 35.8332 15.7026 36.16 17.3693C36.1764 17.4673 36.2254 17.6471 36.2417 17.7451C36.2581 17.8268 36.3071 17.9248 36.2908 18.0229C36.2581 18.3824 36.1927 18.7418 36.16 19.1013C35.9149 21.2745 35.9803 23.4967 35.7025 25.6699C35.4574 27.9575 35.1306 30.2451 34.4443 32.451C34.2319 33.1209 33.8234 33.7255 33.2842 34.1667C32.0751 35.1797 30.4901 35.5229 28.9705 35.5882C25.9313 35.7353 22.843 34.6569 21.0783 32.0915C21.013 31.9935 21.1437 31.8791 21.2254 31.9771C22.696 33.5621 24.6894 34.5752 26.8136 34.8039C29.1666 35.0817 32.7123 34.8693 33.7417 32.3529C34.9345 28.7909 35.5555 25.0163 35.6208 21.2745C35.6208 20.3595 35.5718 19.4445 35.5718 18.5131C35.5718 18.3987 35.5881 18.1373 35.5881 18.0229C35.5881 18.0065 35.5881 18.0229 35.5881 18.0229C35.5881 18.0392 35.5881 18.0392 35.5881 18.0229C35.4574 17.6961 35.4084 17.3366 35.3104 17.0098C34.9509 15.6536 34.2973 14.3628 33.3659 13.3333C30.2777 9.86929 23.3986 9.00327 19.5424 11.6013C16.4868 13.6275 15.6698 17.5163 15.4574 20.9477C15.2777 23.5131 16.0293 26.0294 17.9738 27.7941L18.7417 28.5948C19.0685 28.9543 18.513 29.3791 18.2515 28.9869Z" fill="black"/>
<path d="M20.1797 23.7908C20.1797 23.7908 19.6732 21.3399 17.2876 21.634C15.2288 21.8954 14.5098 26.8301 19.183 28.2026" fill="white"/>
<path d="M18.9705 26.0621C18.5947 25.8497 18.3333 25.4902 18.3169 25.0491C18.3333 24.7223 18.3823 24.3464 18.3006 24.0196C18.2516 23.7092 17.9248 23.6275 17.6797 23.6438C17.4182 23.6928 17.2548 24.0196 17.2058 24.2811C17.2058 24.2974 17.1895 24.3464 17.1895 24.3628C17.1731 24.4445 17.0424 24.4445 17.0097 24.3628C16.7973 23.7255 17.2712 23.0229 17.9574 23.1046C18.9215 23.17 19.0522 24.183 18.8725 24.951C18.7744 25.2778 18.9051 25.5719 19.0849 25.8497L19.1176 25.8987C19.1993 25.9968 19.0685 26.1275 18.9705 26.0621Z" fill="black"/>
<path d="M32.0425 22.0588C32.2876 23.219 32.7451 24.2974 33.317 25.3105C33.8236 26.5523 32.5164 27.7288 31.3562 27.6797C31.2255 27.6797 31.2092 27.5 31.3236 27.4673C32.0589 27.2386 32.7288 26.7484 32.8432 25.9967C32.8922 25.768 32.8268 25.5719 32.7124 25.3758C32.1732 24.3628 31.8464 23.2026 31.9281 22.0588C31.9281 21.9771 32.0425 21.9771 32.0425 22.0588Z" fill="black"/>
<path d="M20.0981 23.8072C19.7223 22.8431 18.9053 21.9281 17.8105 21.9445C17.7125 21.9281 17.5491 21.9608 17.451 21.9608C17.1733 21.9771 16.9445 22.0752 16.7321 22.2713C15.6863 23.317 15.8661 25.1634 16.7157 26.3235C17.0099 26.732 17.3857 27.0915 17.8105 27.3856C18.2354 27.6798 18.7092 27.9085 19.2157 28.1046C19.3301 28.1373 19.2811 28.317 19.1667 28.3007C18.072 28.0719 17.0262 27.5327 16.3073 26.634C15.1961 25.2941 14.9674 23.0556 16.2909 21.7484C16.585 21.4869 16.9935 21.2909 17.402 21.2909C17.5327 21.2909 17.7288 21.2582 17.8595 21.2909C18.5458 21.3235 19.1994 21.6667 19.6242 22.2059C20.0001 22.6634 20.2125 23.219 20.2778 23.7745C20.2778 23.8726 20.1308 23.9052 20.0981 23.8072Z" fill="black"/>
<path d="M30.8006 29.3137C29.7549 30.3105 27.7777 29.5098 27.2549 28.3007C27.1895 28.1536 27.3529 28.0229 27.4836 28.0882C27.7614 28.2353 28.0065 28.3824 28.2679 28.4967C29.0196 28.8399 29.8039 29.1177 30.6372 29.036C30.8006 29.0033 30.915 29.1993 30.8006 29.3137Z" fill="black"/>
<path d="M25.9478 23.7255C25.5557 23.7092 25.2615 23.3824 25.2942 22.9902L25.3106 22.5327C25.3269 22.1405 25.6537 21.8464 26.0459 21.8791C26.438 21.8954 26.7321 22.2222 26.6995 22.6144L26.6831 23.0719C26.6668 23.4477 26.34 23.7418 25.9478 23.7255Z" fill="black"/>
<path d="M32.8267 23.9706C32.4672 23.9543 32.1894 23.6438 32.2058 23.2843L32.2221 22.8595C32.2384 22.5 32.5489 22.2222 32.9084 22.2386C33.2679 22.2549 33.5456 22.5654 33.5293 22.9249L33.513 23.3497C33.4966 23.7092 33.1862 23.987 32.8267 23.9706Z" fill="black"/>
<path d="M27.4185 22.8432C26.8792 22.4837 26.291 22.2386 25.6374 22.3693C25.425 22.402 25.2126 22.4673 25.0819 22.6144C25.0328 22.6798 24.9185 22.6634 24.9185 22.5654C24.9348 22.2386 25.2126 22.0262 25.474 21.8954C25.9805 21.634 26.6832 21.683 27.1407 22.0262C27.3041 22.1242 27.8596 22.7288 27.5655 22.8595C27.5002 22.8922 27.4675 22.8758 27.4185 22.8432Z" fill="black"/>
<path d="M32.0916 22.9248C32.0916 22.2386 32.9412 21.9935 33.4641 22.2386C33.7582 22.3693 33.9706 22.6307 34.0523 22.9412C34.085 23.0392 33.938 23.1209 33.8726 23.0392C33.5948 22.7124 33.121 22.549 32.7451 22.7451C32.6308 22.8105 32.6144 22.8595 32.5817 22.9248C32.5817 23.2516 32.1079 23.2353 32.0916 22.9248Z" fill="black"/>
<path d="M28.2027 20.1471C28.5458 20.2614 28.8889 19.951 28.8236 19.5752C28.7909 19.3791 28.7092 19.183 28.5458 19.036C28.0556 18.5948 26.0295 18.2026 24.804 18.7745C23.7255 19.2974 26.634 19.6242 28.2027 20.1471Z" fill="black"/>
<path d="M33.0883 20.4085C32.8105 20.5065 32.5164 20.2124 32.5654 19.8693C32.5818 19.6896 32.6471 19.5098 32.7779 19.3791C33.17 18.9869 34.5099 18.6765 35.3596 19.2811C36.0949 19.7876 34.3628 19.9347 33.0883 20.4085Z" fill="black"/>
<path d="M35.8452 21.9934C36.0086 20.964 36.1229 20.0163 36.1883 19.1176C37.5118 17.8758 37.6262 12.7778 34.4399 12.7451C34.4399 12.7451 33.8354 9.44443 31.0249 8.97057C28.9007 8.61109 27.9693 8.98691 24.8321 9.59148C24.7831 9.60782 24.7341 9.62416 24.6687 9.62416C20.9105 9.90194 17.7406 11.5686 16.3027 13.5784C15.0935 15.2778 14.5543 16.7157 14.4236 18.6274C14.4236 18.7418 14.4073 18.8562 14.4073 18.9706V19.0033C14.3909 19.3627 14.3909 19.7385 14.4073 20.1307C14.3419 21.0457 14.0641 22.2876 13.1654 23.2026C12.087 24.2974 11.5968 25.2451 11.8746 27.1242C9.52164 28.5294 6.97262 30.9314 9.5053 37.0425C10.8452 36.2418 12.4955 35.6372 14.0805 35.3758C14.587 35.2941 15.1262 35.2287 15.6981 35.1961C17.9857 35.0327 19.5543 32.8758 19.0968 30.6372C19.0151 30.1961 18.9497 29.7222 18.9497 29.183C18.9497 28.8562 18.9661 28.5457 18.9988 28.2516C14.5053 26.83 15.2243 21.9934 17.2667 21.732C18.002 21.634 18.5412 21.8137 18.9661 22.0751C19.0478 22.2222 19.1458 22.3529 19.2439 22.4836C21.8419 25.9314 19.1622 26.5033 20.3223 28.7091C20.9922 29.9836 21.7439 30.3431 21.7439 30.3431C21.6948 29.8366 19.7014 28.5131 21.1556 26.83C22.6099 25.147 21.27 24.0686 21.2373 22.7941C21.1883 21.1928 21.5151 20.049 21.9236 19.2483C22.5445 18.7418 23.3942 18.3823 24.5543 18.317C30.7471 17.9738 32.087 16.2091 32.3158 15.1144C32.7569 16.3725 33.5576 18.0882 34.9138 19.134C34.9792 19.232 35.0609 19.33 35.1262 19.4281C35.0118 21.3725 35.6491 28.0555 33.1164 32.598C32.4301 33.8399 31.6131 34.9183 30.6981 35.0817C30.0445 35.1961 29.9138 35.3758 29.3909 35.5065C28.9171 35.6372 28.9661 35.768 28.9661 35.768C28.9661 37.7124 31.8909 37.1078 33.3615 37.2712C34.685 37.4183 35.8288 38.1209 35.8288 38.1209C35.8288 38.1209 36.9399 36.683 36.6948 33.415C36.4171 29.7876 34.6033 30.1144 35.8452 21.9934Z" fill="black"/>
<path d="M32.9902 25.8334C32.9902 25.8334 33.1863 26.9445 34.4772 27.5C34.804 27.6307 35.1471 27.4183 35.1471 27.0588C35.1308 27.0588 33.0719 25.9641 32.9902 25.8334Z" fill="black"/>
<path d="M22.8923 25.8334C22.8923 25.8334 23.4969 27.2059 25.3106 27.5327C27.1244 27.8758 28.7747 26.5686 29.5427 24.3791C29.5427 24.3791 28.9217 26.4052 26.4381 26.7811C23.9871 27.1896 22.8923 25.8334 22.8923 25.8334Z" fill="black"/>
<path d="M29.902 22.7778C29.853 25.1144 27.9739 26.9935 25.7026 26.9935C23.4314 26.9935 21.6177 25.1144 21.6177 22.7778C21.634 20.4249 23.5131 18.4968 25.817 18.4968C28.1209 18.4968 29.9673 20.4249 29.902 22.7778Z" fill="black" stroke="black" stroke-width="0.125" stroke-miterlimit="10" stroke-linecap="round" stroke-linejoin="round"/>
<path d="M32.1406 22.2386C32.4021 20.1307 33.7746 18.4804 35.3923 18.4804C37.1406 18.4804 38.4805 20.4085 38.3825 22.7615C38.2844 25.0981 36.8138 26.9771 35.0981 26.9771C34.4609 26.9771 33.889 26.732 33.4151 26.2909" fill="black"/>
<path d="M32.1406 22.2386C32.4021 20.1307 33.7746 18.4804 35.3923 18.4804C37.1406 18.4804 38.4805 20.4085 38.3825 22.7615C38.2844 25.0981 36.8138 26.9771 35.0981 26.9771C34.4609 26.9771 33.889 26.732 33.4151 26.2909" stroke="black" stroke-width="0.125" stroke-miterlimit="10" stroke-linecap="round" stroke-linejoin="round"/>
<path d="M21.6667 22.3203H19.3464" stroke="black" stroke-width="0.125" stroke-miterlimit="10" stroke-linecap="round" stroke-linejoin="round"/>
<path d="M29.9185 22.3203C29.9185 22.3203 31.8629 21.5686 32.108 22.3203" stroke="black" stroke-width="0.125" stroke-miterlimit="10" stroke-linecap="round" stroke-linejoin="round"/>
</g>
<rect x="0.5" y="0.5" width="49" height="49" rx="3.5" stroke="black"/>
<defs>
<clipPath id="clip0_152_764">
<rect width="50" height="50" rx="4" fill="white"/>
</clipPath>
</defs>
</svg>
