<svg width="50" height="50" viewBox="0 0 50 50" fill="none" xmlns="http://www.w3.org/2000/svg">
<g clip-path="url(#clip0_196_1079)">
<rect width="50" height="50" rx="4" fill="white"/>
<path d="M38.5784 45.4902C38.464 45.5719 38.3333 45.6536 38.2189 45.7353C38.0882 45.817 37.9738 45.8987 37.8431 45.9641C37.7287 46.0294 37.6307 46.0948 37.5163 46.1602C37.5 46.1765 37.4836 46.1765 37.4673 46.1928C37.0915 46.4216 36.6993 46.634 36.3072 46.8301C36.1928 46.8955 36.0621 46.9608 35.9477 47.0098C35.9477 47.0098 35.9313 47.0262 35.915 47.0262C35.7843 47.0915 35.6536 47.1569 35.5228 47.2223C35.2614 47.353 34.9836 47.4674 34.7222 47.5817C34.5915 47.6471 34.4444 47.6961 34.3137 47.7451C34.183 47.7942 34.0359 47.8595 33.9052 47.9085C33.7745 47.9576 33.6274 48.0229 33.4967 48.0719C33.4967 48.0719 33.4967 48.0719 33.4804 48.0719C33.3496 48.121 33.2026 48.17 33.0719 48.219C32.7777 48.317 32.4673 48.4151 32.1732 48.5131C32.0751 48.5458 31.9607 48.5785 31.8627 48.6111C31.5523 48.7092 31.2418 48.7909 30.9313 48.8562C30.817 48.8889 30.7026 48.9053 30.5719 48.9379C30.2777 49.0033 29.9673 49.0687 29.6732 49.134C29.6078 49.1504 29.5588 49.1504 29.4934 49.1667C29.3954 49.183 29.281 49.1994 29.183 49.2157C29.0359 49.2321 28.9052 49.2647 28.7581 49.2811C28.6928 49.2974 28.6274 49.2974 28.5621 49.3138C28.4804 49.3301 28.3823 49.3464 28.2843 49.3464C28.0228 49.3791 27.7451 49.4118 27.4836 49.4445C27.4019 49.4608 27.3039 49.4608 27.2222 49.4772H27.2058C27.0915 49.4935 26.9771 49.4935 26.8627 49.5098C26.7483 49.5262 26.634 49.5262 26.5196 49.5262C26.4542 49.5262 26.3725 49.5425 26.3072 49.5425C26.1764 49.5425 26.0621 49.5589 25.9477 49.5589C25.7843 49.5589 25.6372 49.5752 25.4738 49.5752C25.3104 49.5752 25.1634 49.5752 25 49.5752C24.8856 49.5752 24.7712 49.5752 24.6568 49.5752C17.7614 49.4772 11.5686 46.5523 7.14049 41.9118C7.14049 41.9118 7.14049 41.8955 7.12415 41.8955C6.63395 41.4543 7.05879 39.1013 9.03591 37.6144C11.5196 35.7353 17.4673 34.5589 17.4673 34.5589C17.4673 34.5589 19.7712 34.183 28.317 35.9641C33.317 37.0098 37.1241 38.5294 39.2483 42.6471C39.6895 43.4968 40.1307 44.804 38.5784 45.4902Z" fill="white"/>
<path d="M28.3661 35.7843C31.5033 36.4216 34.853 37.1079 37.4347 39.183C38.3007 39.8856 38.8726 40.9151 39.3465 41.9118C39.5752 42.402 39.804 42.9085 39.9837 43.4477C40.0818 43.8072 40.2288 44.2157 40.1471 44.6405C40.1308 44.7549 40.0327 44.902 39.951 44.9837C39.5752 45.3595 39.1667 45.5883 38.7582 45.8824C36.3563 47.549 33.5948 48.7255 30.7354 49.3464C24.3628 50.7353 17.4674 49.6569 11.8628 46.3072C10.0001 45.1798 8.28438 43.8072 6.81379 42.1896C6.65039 41.9935 6.65039 41.6667 6.65039 41.4543C6.66673 40.9641 6.79745 40.4902 6.96085 40.049C7.353 39.036 7.85954 38.0229 8.72555 37.3203C9.34647 36.8954 10.0164 36.536 10.7027 36.2418C12.8595 35.3268 15.1308 34.6896 17.4674 34.4281C17.6635 34.4118 17.6961 34.6896 17.5001 34.7222C15.2615 35.1798 13.0393 35.866 10.9641 36.7974C10.2125 37.1732 9.41183 37.5 8.80725 38.0883C8.23536 38.7092 7.82686 39.4771 7.50006 40.2615C7.28765 40.7353 7.14059 41.4869 7.20595 41.8628C8.23536 43.0883 9.44451 44.1667 10.7517 45.0981C17.9086 50.0981 28.7746 50.4249 36.389 46.2582C37.0752 45.8824 37.7452 45.4575 38.3824 45.0164C38.6929 44.8039 39.0197 44.6242 39.2648 44.3791C39.2811 44.3628 39.2648 44.3791 39.2648 44.3954C39.2648 44.4118 39.2484 44.4281 39.2484 44.4281C39.2648 44.232 39.1994 43.9706 39.1177 43.7092C38.8236 42.7615 38.3497 41.7647 37.8432 40.8987C37.0425 39.6079 35.6863 38.7909 34.3138 38.1373C33.3661 37.6961 32.3693 37.353 31.3563 37.0262C30.3432 36.6994 29.3138 36.4216 28.2844 36.1765C28.0229 36.1111 28.1046 35.7353 28.3661 35.7843Z" fill="black"/>
<path d="M38.5785 45.4902C38.4641 45.5719 38.3334 45.6536 38.219 45.7353C38.0883 45.817 37.9739 45.8987 37.8432 45.9641C37.7288 46.0295 37.6308 46.0948 37.5164 46.1602C37.5001 46.1765 37.4837 46.1765 37.4674 46.1929C37.0916 46.4216 36.6994 46.634 36.3073 46.8301C36.1929 46.8955 36.0622 46.9608 35.9478 47.0099C35.9478 47.0099 35.9315 47.0262 35.9151 47.0262C35.7844 47.0916 35.6537 47.1569 35.523 47.2223C35.2615 47.353 34.9837 47.4674 34.7223 47.5818C34.5916 47.6471 34.4445 47.6961 34.3138 47.7452C34.1831 47.7942 34.036 47.8595 33.9053 47.9086C33.7746 47.9576 33.6275 48.0229 33.4968 48.0719C33.4968 48.0719 33.4968 48.0719 33.4805 48.0719C33.3498 48.121 33.2027 48.17 33.072 48.219C32.7779 48.317 32.4674 48.4151 32.1733 48.5131C32.0752 48.5458 31.9609 48.5785 31.8628 48.6112C31.5524 48.7092 31.2419 48.7909 30.9315 48.8563C30.8171 48.8889 30.7027 48.9053 30.572 48.938C30.2779 49.0033 29.9674 49.0687 29.6733 49.134C29.6079 49.1504 29.5589 49.1504 29.4935 49.1667C29.3955 49.1831 29.2811 49.1994 29.1831 49.2157C29.036 49.2321 28.9053 49.2648 28.7583 49.2811C28.6929 49.2974 28.6275 49.2974 28.5622 49.3138C28.4805 49.3301 28.3824 49.3465 28.2844 49.3465C28.023 49.3791 27.7452 49.4118 27.4837 49.4445C27.402 49.4608 27.304 49.4608 27.2223 49.4772H27.206C27.0916 49.4935 26.9772 49.4935 26.8628 49.5099C26.7485 49.5262 26.6341 49.5262 26.5197 49.5262C26.4543 49.5262 26.3726 49.5425 26.3073 49.5425C26.1766 49.5425 26.0622 49.5589 25.9478 49.5589C25.7844 49.5589 25.6373 49.5752 25.4739 49.5752C25.3105 49.5752 25.1635 49.5752 25.0001 49.5752C24.8857 49.5752 24.7713 49.5752 24.6569 49.5752C17.7615 49.4772 11.5687 46.5523 7.14061 41.9118C7.14061 41.9118 7.14061 41.8955 7.12427 41.8955C7.6308 40.8987 9.50989 39.1014 11.4707 37.6144C12.1569 37.1079 11.6177 36.0458 12.3857 35.7027C14.6079 34.7223 17.4674 34.5752 17.4674 34.5752C17.4674 34.5752 19.7713 34.1994 28.3171 35.9804C36.2419 37.6308 35.9641 38.4151 38.5785 45.4902Z" fill="white"/>
<path d="M28.3661 35.7843C30.2615 36.1765 32.2059 36.4542 34.036 37.1569C35.3269 37.6471 36.3563 38.6601 36.9118 39.902C37.7288 41.683 38.2517 43.5458 38.9706 45.3431C39.036 45.5229 38.9707 45.7353 38.8236 45.8333C34.0197 49.1993 27.9412 50.4412 22.1733 49.7712C16.3889 49.1176 10.768 46.5359 6.81378 42.1895C6.68306 42.0588 6.66672 41.8627 6.74842 41.7157C7.22228 40.6863 7.77784 39.6569 8.41509 38.6928C9.24842 37.4837 10.2452 36.3235 11.5687 35.6373C12.353 35.2614 13.219 35.0654 14.0687 34.8693C15.1798 34.6078 16.3399 34.4771 17.4674 34.4281C17.6635 34.4281 17.6798 34.7059 17.5001 34.7222C15.8171 34.9346 14.1994 35.3268 12.5981 35.8497C10.9968 36.3562 9.86934 37.6797 8.92163 39.0196C8.28437 39.9346 7.71248 40.915 7.22228 41.9118L7.20594 41.8301C8.13731 42.9248 9.18307 43.9052 10.3269 44.7549C15.9314 48.9379 23.938 49.9673 30.6537 48.3987C33.3824 47.7614 35.9968 46.634 38.3007 45.049C38.3007 45.049 38.1046 45.6536 38.121 45.6536C37.6961 44.4281 37.3203 43.1863 36.9282 41.9771C36.536 40.768 36.1439 39.5425 35.3105 38.6928C34.4445 37.8105 33.219 37.4183 32.0425 37.0752C30.8171 36.732 29.5589 36.4542 28.3007 36.1601C28.0229 36.1111 28.1046 35.7353 28.3661 35.7843Z" fill="black"/>
<path d="M15.9641 41.5523C15.9641 41.5523 22.7778 44.5588 28.8236 44.232C30.9314 44.1177 32.9412 43.6111 34.5425 42.4183C34.5425 42.4183 34.902 45.7026 30.1798 47.6307C25.4739 49.5588 17.4184 44.2974 15.9641 41.5523Z" fill="black"/>
<path d="M27.7126 44.2484C27.7126 44.2484 26.2583 48.7418 24.8531 48.9216C23.4479 49.1013 15.9806 43.1209 15.376 41.3562C15.376 41.3562 21.7322 44.0686 27.7126 44.2484Z" fill="white"/>
<path d="M27.8434 44.1667C27.8924 44.1994 27.8597 44.3301 27.8597 44.3138V44.3301V44.3464L27.8434 44.3791C27.4185 45.6209 26.3238 48.8889 24.9185 49.1667C23.4643 49.2811 19.3793 45.9641 18.1538 44.9347C17.5819 44.4445 17.01 43.9379 16.4708 43.3987C15.9153 42.8105 15.327 42.2713 15.0002 41.5033C14.8695 41.1765 15.229 40.8497 15.5395 40.9968C16.4872 41.4053 17.4839 41.7974 18.4806 42.1405C20.9643 42.9902 23.5297 43.6765 26.144 43.987C26.6996 44.036 27.2878 44.036 27.8434 44.1667ZM27.5819 44.3464C27.3532 44.3954 27.1408 44.4118 26.8957 44.3791C23.9545 44.2321 21.0623 43.6111 18.2519 42.7615C17.2225 42.451 16.2257 42.1079 15.2127 41.7157L15.7519 41.2092C16.0133 41.8301 16.5362 42.353 16.9937 42.8432C17.5002 43.3824 18.0395 43.8889 18.595 44.3791C19.7061 45.3758 20.8499 46.3072 22.0591 47.1732C22.6636 47.5981 23.2846 48.0229 23.9218 48.3497C24.1832 48.4804 24.5591 48.6765 24.8368 48.6602C25.6702 48.4477 26.3401 46.9935 26.7159 46.2419C27.0264 45.5719 27.3042 44.8856 27.5493 44.1994C27.5819 44.1667 27.5329 44.3137 27.5819 44.3464Z" fill="black"/>
<path d="M27.7126 44.2484C27.7126 44.2484 29.9675 47.7124 30.9643 47.8922C31.961 48.0719 33.9872 44.8856 34.4447 42.4673C34.461 42.4837 32.4675 44.183 27.7126 44.2484Z" fill="white"/>
<path d="M27.9086 44.3464C27.9413 44.2974 27.9413 44.183 27.9086 44.1503C27.9086 44.134 27.9086 44.1503 27.9086 44.1503C27.9576 44.2157 28.0556 44.3464 28.1047 44.4281C28.5949 45.1144 29.1014 45.8007 29.6569 46.4216C30.0654 46.8628 30.4413 47.3366 30.9805 47.5817C31.6994 47.7124 32.8759 45.6373 33.1537 45.0327C33.5622 44.183 33.9053 43.2843 34.0687 42.3856L34.7387 42.7778C34.5916 42.8922 34.4772 42.9739 34.3138 43.0556C33.121 43.7418 31.7648 44.1013 30.4086 44.2974C29.8203 44.3954 29.2158 44.4281 28.6112 44.4445C28.3498 44.4608 28.17 44.3954 27.9086 44.3464ZM27.5164 44.1503C28.4151 43.9216 29.3955 43.9379 30.2942 43.7418C31.4053 43.5131 32.5328 43.1699 33.5132 42.6144C33.7419 42.4837 33.9707 42.3366 34.1668 42.1732C34.4445 41.9118 34.9184 42.1896 34.8367 42.5654C34.4609 44.3301 33.1373 47.0752 31.6014 48.0556C31.1439 48.3333 30.67 48.219 30.2779 47.8758C29.8694 47.549 29.5426 47.1569 29.2321 46.781C28.6275 46.0458 28.0883 45.2614 27.5654 44.4608L27.5328 44.4281L27.5164 44.4118C27.5001 44.3301 27.4837 44.2157 27.5164 44.1503Z" fill="black"/>
<path d="M41.0132 56.9771H3.79102C3.8237 55.0817 4.03611 49.3301 5.47402 45.2124C6.09494 43.415 7.04265 39.5915 7.90866 38.4477C8.0067 38.317 8.10474 38.1699 8.21912 38.0392C9.52631 36.6013 11.4544 35.6863 11.6832 35.5719C11.8956 35.4575 12.108 35.5229 12.2387 35.6209C28.9871 53.9052 36.0623 42.5 34.4283 37.6471C34.4283 37.6471 34.4283 37.6307 34.4446 37.6307C34.5917 37.6307 35.6701 37.9412 36.8302 38.7418C38.1701 39.6569 39.1015 41.0458 39.5263 42.598C39.8531 43.8399 40.3433 45.7843 40.6538 47.7778C40.6538 47.7941 40.6701 47.8105 40.6701 47.8268C41.4871 49.8366 40.2453 49.9183 40.6701 53.0719C40.8335 54.2974 40.9479 55.5882 41.0132 56.9771Z" fill="white"/>
<path d="M41.3072 57.2712C29.1503 57.402 15.8987 57.4183 3.79082 57.402C3.56206 57.402 3.38232 57.2222 3.38232 56.9935C3.46402 53.9052 3.75814 50.817 4.46076 47.8105C4.64049 47.0588 4.85291 46.3072 5.09801 45.5719C5.52285 44.3627 5.89866 43.1536 6.30716 41.9444C6.732 40.7353 7.09147 39.4608 7.81043 38.3824C8.26795 37.7451 8.87252 37.2386 9.49344 36.781C10.1144 36.3235 10.7843 35.9314 11.4706 35.5882L11.6503 35.5065C11.7157 35.4739 11.7974 35.4575 11.8627 35.4412C12.0261 35.4248 12.1895 35.4739 12.3039 35.5882C14.0523 37.4837 15.8987 39.2974 17.9085 40.915C19.4117 42.1242 21.013 43.2353 22.7287 44.085C25.4738 45.4575 29.0686 46.2582 31.732 44.3137C33.2353 43.219 34.1666 41.4216 34.281 39.5752C34.3137 38.9706 34.2483 38.3497 34.0359 37.8105C34.0032 37.6961 34.0032 37.5817 34.0686 37.5C34.1503 37.3203 34.3791 37.2386 34.5588 37.3039C35.3104 37.5327 35.964 37.9575 36.6013 38.3987C37.9412 39.1993 39.0032 40.4739 39.5588 41.9281C40.049 43.3824 40.3758 44.8693 40.7026 46.3562C40.7843 46.7484 40.9313 47.4837 40.964 47.7124C41.0457 47.8922 41.1928 48.2843 41.2418 48.5458C41.4379 49.3301 41.1274 50.1634 41.0294 50.8987C40.9313 51.6013 40.9804 52.3203 41.0784 53.0392L40.964 53.3824C40.9967 53.3497 41.0457 53.2843 41.0784 53.1863C41.1111 53.1046 41.0784 52.9739 41.0784 52.9739C41.0784 52.9902 41.0947 53.0229 41.0947 53.0882V53.0392C41.2255 54.0196 41.3398 55 41.4052 55.9804L41.4379 56.4706C41.4215 56.7157 41.4215 57.0588 41.3072 57.2712ZM40.7189 56.6993C40.6536 56.683 40.5882 56.732 40.5882 56.7484L40.5719 56.5196C40.5065 55.3922 40.4085 54.2647 40.2451 53.1536V53.1046C40.2451 53.1699 40.2614 53.219 40.2614 53.219C40.2614 53.2353 40.2614 53.219 40.2451 53.1863C40.2451 53.1536 40.2287 53.0719 40.2451 52.9902C40.2614 52.9085 40.3104 52.8431 40.3595 52.7941L40.2451 53.1373C40.049 52.0098 40.1634 50.7353 40.4575 49.6405C40.6046 49.0523 40.4575 48.4314 40.2451 47.9412C40.147 47.451 40.0817 46.9608 39.9836 46.4706C39.7712 45.3595 39.5098 44.2647 39.232 43.1863C38.9869 42.1405 38.5621 41.1275 37.8758 40.2941C36.9934 39.2157 35.7516 38.4477 34.4117 38.0719H34.3954H34.4117L34.7549 37.8758L34.7385 37.8922L34.7876 37.549C35.2287 38.8889 35.049 40.3268 34.5751 41.6176C32.8431 46.0131 28.3987 46.9118 24.2974 45.3595C21.8137 44.4608 19.5915 42.9575 17.5653 41.3235C15.5392 39.6732 13.6764 37.8431 11.9281 35.9314L11.9771 35.9804C11.9444 35.9641 11.9117 35.9477 11.8954 35.9477C11.1601 36.2908 10.4411 36.732 9.78755 37.2059C9.00324 37.7941 8.25161 38.4641 7.87579 39.2974C7.66337 39.7386 7.48363 40.1961 7.32023 40.6699C6.8137 42.1078 6.42154 43.5784 5.94768 45.049C5.80063 45.5065 5.62089 46.0294 5.49017 46.4869C4.55879 49.902 4.28102 53.4641 4.18298 56.9935L3.77448 56.585C16.1111 56.5686 28.3823 56.634 40.7189 56.6993Z" fill="black"/>
<path d="M15.2289 56.9771H3.79102C3.8237 55.0817 4.03611 49.3301 5.47402 45.2124C6.09494 43.415 6.78121 40.0164 7.64722 38.8726C7.74526 38.7418 13.5459 39.7222 14.9838 50.4739C15.3923 53.5294 15.2616 54.9183 15.2289 56.9771Z" fill="black"/>
<path d="M38.3008 54.1994C38.6112 48.1373 38.3988 44.8203 38.0557 42.5654C37.7452 40.5556 36.6995 39.0523 36.6995 39.0523C36.9772 39.3628 37.8433 39.951 38.0884 40.3595C38.4478 40.9804 38.791 41.7157 39.1014 42.5164C39.1014 42.5327 39.1178 42.549 39.1178 42.5654C40.0001 44.902 40.6537 47.8105 41.1112 50.2941C41.2746 51.5033 41.4053 52.7941 41.4544 54.183H38.3008V54.1994Z" fill="black"/>
<path d="M10.6863 38.5131C10.6209 38.5131 10.5556 38.4804 10.5065 38.4314C10.4412 38.3497 10.3922 38.3007 10.3922 38.3007C10.3105 38.2026 10.3268 38.0392 10.4248 37.9575C10.5229 37.8758 10.6863 37.8922 10.768 37.9902C10.768 37.9902 10.8007 38.0392 10.866 38.1046C10.9477 38.2026 10.9477 38.366 10.8333 38.4477C10.8007 38.4967 10.7353 38.5131 10.6863 38.5131Z" fill="black"/>
<path d="M27.6145 49.134C27.5001 49.134 27.3857 49.134 27.2714 49.1177C27.1406 49.1177 27.0263 49.0033 27.0426 48.8562C27.0426 48.7255 27.157 48.6111 27.304 48.6275C27.4184 48.6275 27.5165 48.6275 27.6308 48.6438C27.7616 48.6438 27.8759 48.7582 27.8759 48.8889C27.8596 49.036 27.7616 49.134 27.6145 49.134ZM29.5753 48.9706C29.4609 48.9706 29.3629 48.8889 29.3302 48.7745C29.2975 48.6438 29.3955 48.5131 29.5263 48.4804C29.6243 48.4641 29.7387 48.4314 29.8367 48.4151C29.9674 48.3824 30.0982 48.4641 30.1308 48.5948C30.1635 48.7255 30.0818 48.8562 29.9511 48.8889C29.8367 48.9216 29.7387 48.9379 29.6243 48.9543C29.608 48.9706 29.5916 48.9706 29.5753 48.9706ZM25.3433 48.8726C25.3269 48.8726 25.3106 48.8726 25.2942 48.8726C25.1799 48.8562 25.0818 48.8236 24.9674 48.7909C24.8367 48.7582 24.755 48.6275 24.7877 48.4968C24.8204 48.366 24.9511 48.2843 25.0818 48.317C25.1799 48.3497 25.2942 48.366 25.3923 48.3824C25.523 48.4151 25.6047 48.5458 25.5884 48.6765C25.5557 48.7909 25.4576 48.8726 25.3433 48.8726ZM31.7485 48.2353C31.6668 48.2353 31.5688 48.1863 31.5361 48.1046C31.4707 47.9902 31.5197 47.8432 31.6504 47.7778C31.7485 47.7288 31.8465 47.6798 31.9282 47.6307C32.0426 47.5654 32.1897 47.6144 32.255 47.7288C32.3204 47.8432 32.2714 47.9902 32.157 48.0556C32.0589 48.1046 31.9609 48.17 31.8629 48.219C31.8138 48.219 31.7812 48.2353 31.7485 48.2353ZM23.1537 48.219C23.121 48.219 23.0884 48.219 23.072 48.2026C22.974 48.17 22.8596 48.1209 22.7616 48.0883C22.6308 48.0392 22.5818 47.8922 22.6308 47.7615C22.6799 47.6307 22.8269 47.5817 22.9576 47.6307C23.0557 47.6634 23.1537 47.7124 23.2518 47.7451C23.3825 47.7941 23.4478 47.9412 23.3988 48.0556C23.3335 48.1536 23.2518 48.219 23.1537 48.219ZM21.0622 47.2713C21.0295 47.2713 20.9805 47.2549 20.9478 47.2386C20.8498 47.1896 20.7518 47.1405 20.6537 47.0752C20.5393 47.0098 20.4903 46.8628 20.5557 46.7484C20.621 46.634 20.7681 46.585 20.8825 46.6504C20.9805 46.6994 21.0786 46.7484 21.1603 46.7974C21.2746 46.8628 21.3237 47.0098 21.2583 47.1242C21.2256 47.2222 21.1439 47.2713 21.0622 47.2713ZM33.5949 46.8954C33.5295 46.8954 33.4642 46.8791 33.4152 46.8301C33.3171 46.7321 33.3171 46.585 33.4152 46.487C33.4969 46.4053 33.5622 46.3399 33.6276 46.2582C33.7256 46.1602 33.8727 46.1438 33.9707 46.2419C34.0688 46.3399 34.0851 46.487 33.9871 46.585C33.9054 46.6667 33.84 46.7484 33.7583 46.8301C33.7256 46.8791 33.6603 46.8954 33.5949 46.8954ZM19.1014 46.0785C19.0524 46.0785 19.0034 46.0621 18.9707 46.0294C18.8727 45.9641 18.791 45.8987 18.6929 45.8497C18.5786 45.768 18.5459 45.6209 18.6276 45.5066C18.7093 45.3922 18.8563 45.3595 18.9707 45.4412C19.0524 45.5066 19.1504 45.5556 19.2485 45.6209C19.3629 45.7026 19.3955 45.8497 19.3138 45.9641C19.2485 46.0458 19.1668 46.0785 19.1014 46.0785ZM34.9184 45.0327C34.8857 45.0327 34.8531 45.0327 34.804 45C34.6897 44.9347 34.6243 44.7876 34.6897 44.6732C34.7387 44.5752 34.7877 44.4771 34.8204 44.3791C34.8694 44.2484 35.0165 44.1994 35.1472 44.2484C35.2779 44.2974 35.3269 44.4445 35.2779 44.5752C35.2289 44.6732 35.1799 44.7876 35.1308 44.8856C35.0982 44.9837 35.0001 45.0327 34.9184 45.0327ZM17.2387 44.7386C17.1897 44.7386 17.1406 44.7222 17.0916 44.6896C17.0099 44.6242 16.9119 44.5588 16.8302 44.4935C16.7321 44.4118 16.6995 44.2484 16.7975 44.1504C16.8792 44.0523 17.0426 44.0196 17.1406 44.1177C17.2223 44.183 17.304 44.2484 17.4021 44.3138C17.5165 44.3955 17.5328 44.5588 17.4511 44.6569C17.3857 44.7059 17.304 44.7386 17.2387 44.7386ZM15.474 43.268C15.4086 43.268 15.3596 43.2517 15.3106 43.2026C15.2289 43.1373 15.1472 43.0556 15.0655 42.9902C14.9674 42.9085 14.9511 42.7451 15.0491 42.6471C15.1308 42.549 15.2942 42.5327 15.3923 42.6307C15.474 42.6961 15.5557 42.7778 15.6374 42.8432C15.7354 42.9249 15.7518 43.0883 15.6537 43.1863C15.6047 43.2353 15.5393 43.268 15.474 43.268ZM35.6047 42.8432C35.5884 42.8432 35.572 42.8432 35.572 42.8432C35.4413 42.8268 35.3433 42.6961 35.3759 42.5654C35.3923 42.451 35.4086 42.353 35.425 42.2549C35.4413 42.1242 35.5557 42.0262 35.7027 42.0425C35.8335 42.0588 35.9315 42.1732 35.9152 42.3203C35.8988 42.4347 35.8825 42.5327 35.8661 42.6471C35.8171 42.7615 35.7191 42.8432 35.6047 42.8432ZM13.7746 41.7157C13.7093 41.7157 13.6439 41.6994 13.6112 41.6503C13.5295 41.5687 13.4478 41.5033 13.3825 41.4216C13.2844 41.3236 13.2844 41.1765 13.3825 41.0785C13.4805 40.9804 13.6276 40.9804 13.7256 41.0785C13.8073 41.1602 13.889 41.2255 13.9544 41.3072C14.0524 41.4053 14.0524 41.5523 13.9544 41.6503C13.9053 41.6994 13.84 41.7157 13.7746 41.7157ZM12.157 40.0817C12.0916 40.0817 12.0263 40.049 11.9772 40C11.8955 39.9183 11.8302 39.8366 11.7485 39.7549C11.6504 39.6569 11.6668 39.4935 11.7648 39.4118C11.8629 39.3301 12.0263 39.3301 12.108 39.4281C12.1733 39.5098 12.255 39.5915 12.3367 39.6732C12.4348 39.7713 12.4184 39.9183 12.3204 40.0164C12.2714 40.0654 12.2223 40.0817 12.157 40.0817Z" fill="black"/>
<path d="M35.6208 40.719C35.5064 40.719 35.392 40.6373 35.3757 40.5065C35.3594 40.4085 35.3594 40.3595 35.3594 40.3595C35.3267 40.2288 35.4247 40.098 35.5554 40.0654C35.6862 40.0327 35.8169 40.1307 35.8496 40.2614C35.8496 40.2614 35.8659 40.3268 35.8822 40.4412C35.8986 40.5719 35.8005 40.7026 35.6698 40.719C35.6535 40.719 35.6371 40.719 35.6208 40.719Z" fill="black"/>
<path d="M18.0066 34.3628C21.3073 33.9543 24.6896 34.4608 27.7942 35.6536C28.0556 35.7516 27.9086 36.1438 27.6471 36.0458C25.3596 35.1798 22.9413 34.6896 20.4903 34.5915C19.6733 34.5588 18.8563 34.5588 18.0556 34.6242C17.8759 34.6405 17.8432 34.3954 18.0066 34.3628Z" fill="black"/>
<path d="M29.9018 40.1307C29.5587 41.8137 27.3365 42.8268 23.5946 41.3072C19.7057 39.7386 18.0227 35.9967 17.5979 34.8856C19.9018 30.5719 18.3005 27.5817 18.3005 27.5817C23.611 27.1242 28.2515 33.3333 28.2515 33.3333L28.9705 36.4052C29.0358 36.6667 29.1665 36.8954 29.3626 37.0588C29.7057 37.6634 30.1142 39.0523 29.9018 40.1307Z" fill="white"/>
<path d="M17.5162 34.9347C17.8267 34.4608 18.0228 33.9053 18.1535 33.366C18.3986 32.2386 18.4803 31.0948 18.4966 29.951V29.5262C18.4476 29.1013 18.3005 28.6602 18.1371 28.268C17.9247 27.7451 18.6927 27.4183 18.9378 27.9412C18.9705 28.0066 18.9705 28.1209 18.9705 28.1863C19.0195 30.4085 19.1175 33.268 17.7123 35.1144C17.6143 35.2124 17.4182 35.0654 17.5162 34.9347Z" fill="black"/>
<path d="M28.4313 33.3007C28.6764 33.4477 28.7581 33.6438 28.7908 33.8399C28.8888 34.232 28.8561 34.6569 28.9542 35.0654C29.0359 35.4575 29.281 35.8333 29.3463 36.2418C29.428 36.6667 29.6731 37.5654 29.7712 38.0066C29.8038 38.1046 29.7385 38.219 29.6241 38.2353C29.5587 38.2516 29.5097 38.2353 29.4607 38.2026C29.2483 38.0229 29.1502 37.8431 29.0195 37.6144C28.8071 37.2222 28.66 36.8628 28.5293 36.4216C28.4149 36.0294 28.464 35.6046 28.3659 35.1961C28.2842 34.8039 28.0555 34.4281 27.9738 34.0196C27.9248 33.8235 27.9084 33.6111 28.0555 33.366C28.1535 33.268 28.3169 33.2353 28.4313 33.3007Z" fill="black"/>
<path d="M29.6079 37.6144C26.487 37.451 23.938 36.4706 21.4543 32.0425C23.5458 33.8889 26.0132 34.5915 28.6112 34.9183L28.9543 36.4216C29.0197 36.683 29.4119 37.451 29.6079 37.6144Z" fill="black"/>
<path d="M29.4771 37.0098C30.0326 38.0556 30.3594 39.3628 30.0163 40.5229C29.7549 41.3399 29.0032 41.9445 28.1862 42.1732C26.2908 42.6798 24.1013 41.8791 22.4182 40.9804C20.3431 39.8203 18.8071 37.8758 17.8267 35.7516C17.7614 35.5882 17.9901 35.4575 18.0882 35.6209C18.4313 36.3072 18.8235 36.9771 19.2647 37.5817C19.7058 38.2026 20.2124 38.7745 20.7843 39.2811C22.4509 40.7843 24.7058 41.7157 26.9607 41.7157C29.281 41.6503 30.1633 40.4248 29.6241 38.1699C29.5424 37.8105 29.4117 37.4347 29.232 37.1242C29.1339 36.9935 29.379 36.8464 29.4771 37.0098Z" fill="black"/>
<path d="M35.8008 17.3856C36.0949 18.7582 36.242 19.8693 35.4413 23.5294C34.657 27.1732 36.1766 30.8497 32.3204 34.1993C29.7224 36.4542 25.1799 36.8791 21.5524 34.4118C20.327 33.5784 20.0002 29.6895 19.0361 28.2026C18.6276 27.5817 18.3825 28.5784 17.4511 27.549C16.1603 26.1438 14.608 23.317 15.376 18.317C16.6178 10.2124 23.0394 9.26469 27.7943 10.1634C32.5655 11.0621 35.0165 13.7745 35.8008 17.3856Z" fill="white"/>
<path d="M18.2516 28.9869C17.8758 28.366 17.4019 27.8268 16.9607 27.2549C16.3071 26.3725 15.8169 25.3595 15.4901 24.3137C14.0849 19.8366 14.8365 14.0033 18.9869 11.2091C22.8267 8.61109 30.1633 9.39541 33.5293 12.5327C35.2124 14.0523 36.1437 16.2582 36.3398 18.4804C36.4378 19.9673 36.0784 21.4052 35.7679 22.8431C35.4084 24.2484 35.3267 25.6536 35.3267 27.1078C35.3104 28.5621 35.245 30.0817 34.6895 31.4542C33.8398 33.5457 32.0588 35.2451 29.9182 35.964C27.1078 36.9444 23.7908 36.3889 21.4869 34.5098C21.3888 34.4281 21.4869 34.2974 21.6012 34.3464C24.6241 36.0621 28.5947 36.3562 31.5359 34.3791C33.2843 33.2026 34.4934 31.3399 34.7712 29.2484C34.9999 27.8268 34.9346 26.3889 35.0653 24.951C35.1143 24.3137 35.2941 23.4314 35.4248 22.7941C35.6209 21.732 35.7516 20.6699 35.7352 19.6078C35.7189 18.5621 35.4901 17.5327 35.1797 16.5359C34.1012 12.9902 31.013 10.8987 27.4509 10.3268C22.1241 9.39541 17.4673 11.3725 16.0784 16.9117C15.4738 19.6242 14.9999 22.6144 16.1437 25.2451C16.5522 26.2418 17.2222 27.0915 17.9901 27.8268L18.7418 28.6274C19.0686 28.9542 18.513 29.3791 18.2516 28.9869Z" fill="black"/>
<path d="M20.1797 23.7909C20.1797 23.7909 19.6732 21.3399 17.2876 21.634C15.2288 21.8954 14.5098 26.8301 19.183 28.2026" fill="white"/>
<path d="M18.9705 26.0621C18.5947 25.8497 18.3333 25.4902 18.3169 25.049C18.3333 24.7222 18.3823 24.3464 18.3006 24.0196C18.2516 23.7092 17.9248 23.6275 17.6797 23.6438C17.4182 23.6928 17.2548 24.0196 17.2058 24.2811C17.2058 24.2974 17.1895 24.3464 17.1895 24.3628C17.1731 24.4445 17.0424 24.4445 17.0097 24.3628C16.7973 23.7255 17.2712 23.0229 17.9574 23.1046C18.9215 23.17 19.0522 24.183 18.8725 24.951C18.7744 25.2778 18.9051 25.5719 19.0849 25.8497L19.1176 25.8987C19.1993 25.9967 19.0685 26.1275 18.9705 26.0621Z" fill="black"/>
<path d="M32.0425 22.0588C32.2876 23.219 32.7451 24.2974 33.317 25.3105C33.8236 26.5523 32.5164 27.7288 31.3562 27.6797C31.2255 27.6797 31.2092 27.5 31.3236 27.4673C32.0589 27.2386 32.7288 26.7484 32.8432 25.9967C32.8922 25.768 32.8268 25.5719 32.7124 25.3758C32.1732 24.3628 31.8464 23.2026 31.9281 22.0588C31.9281 21.9771 32.0425 21.9771 32.0425 22.0588Z" fill="black"/>
<path d="M20.0981 23.8072C19.7223 22.8432 18.9053 21.9281 17.8105 21.9445C17.7125 21.9281 17.5491 21.9608 17.451 21.9608C17.1733 21.9772 16.9445 22.0752 16.7321 22.2713C15.6863 23.317 15.8661 25.1634 16.7157 26.3236C17.0099 26.7321 17.3857 27.0915 17.8105 27.3857C18.2354 27.6798 18.7092 27.9085 19.2157 28.1046C19.3301 28.1373 19.2811 28.317 19.1667 28.3007C18.072 28.0719 17.0262 27.5327 16.3073 26.634C15.1961 25.2942 14.9674 23.0556 16.2909 21.7484C16.585 21.487 16.9935 21.2909 17.402 21.2909C17.5327 21.2909 17.7288 21.2582 17.8595 21.2909C18.5458 21.3236 19.1994 21.6667 19.6242 22.2059C20.0001 22.6634 20.2125 23.219 20.2778 23.7746C20.2778 23.8726 20.1308 23.9053 20.0981 23.8072Z" fill="black"/>
<path d="M30.8006 29.3137C29.7549 30.3104 27.7777 29.5098 27.2549 28.3006C27.1895 28.1536 27.3529 28.0228 27.4836 28.0882C27.7614 28.2353 28.0065 28.3823 28.2679 28.4967C29.0196 28.8398 29.8039 29.1176 30.6372 29.0359C30.8006 29.0032 30.915 29.1993 30.8006 29.3137Z" fill="black"/>
<path d="M25.9478 23.7255C25.5557 23.7091 25.2615 23.3823 25.2942 22.9902L25.3106 22.5327C25.3269 22.1405 25.6537 21.8464 26.0459 21.8791C26.438 21.8954 26.7321 22.2222 26.6995 22.6144L26.6831 23.0719C26.6668 23.4477 26.34 23.7418 25.9478 23.7255Z" fill="black"/>
<path d="M32.8267 23.9706C32.4672 23.9543 32.1894 23.6438 32.2058 23.2844L32.2221 22.8595C32.2384 22.5 32.5489 22.2223 32.9084 22.2386C33.2679 22.2549 33.5456 22.5654 33.5293 22.9249L33.513 23.3497C33.4966 23.7092 33.1862 23.987 32.8267 23.9706Z" fill="black"/>
<path d="M27.4185 22.8431C26.8792 22.4837 26.291 22.2386 25.6374 22.3693C25.425 22.402 25.2126 22.4673 25.0819 22.6144C25.0328 22.6797 24.9185 22.6634 24.9185 22.5654C24.9348 22.2386 25.2126 22.0261 25.474 21.8954C25.9805 21.634 26.6832 21.683 27.1407 22.0261C27.3041 22.1242 27.8596 22.7288 27.5655 22.8595C27.5002 22.8922 27.4675 22.8758 27.4185 22.8431Z" fill="black"/>
<path d="M32.0916 22.9248C32.0916 22.2386 32.9412 21.9935 33.4641 22.2386C33.7582 22.3693 33.9706 22.6307 34.0523 22.9412C34.085 23.0392 33.938 23.1209 33.8726 23.0392C33.5948 22.7124 33.121 22.549 32.7451 22.7451C32.6308 22.8105 32.6144 22.8595 32.5817 22.9248C32.5817 23.2516 32.1079 23.2353 32.0916 22.9248Z" fill="black"/>
<path d="M28.2027 20.1471C28.5458 20.2615 28.8889 19.951 28.8236 19.5752C28.7909 19.3791 28.7092 19.183 28.5458 19.036C28.0556 18.5948 26.0295 18.2026 24.804 18.7745C23.7255 19.2974 26.634 19.6242 28.2027 20.1471Z" fill="black"/>
<path d="M33.0883 20.4085C32.8105 20.5065 32.5164 20.2124 32.5654 19.8693C32.5818 19.6896 32.6471 19.5098 32.7779 19.3791C33.17 18.9869 34.5099 18.6765 35.3596 19.2811C36.0949 19.7876 34.3628 19.9347 33.0883 20.4085Z" fill="black"/>
<path d="M37.8443 31.8138C35.9489 26.9772 36.194 25.4576 36.6515 21.3889C37.5665 13.3824 34.6743 11.438 33.1547 10.67C26.6841 7.38567 19.2658 8.98698 16.4717 13.4968C14.7234 16.3072 14.658 18.5621 13.6776 21.7974C11.9946 27.3367 7.94232 29.7876 9.20049 35.4576C10.9325 41.0458 22.0109 43.5131 21.7985 37.6961C21.6678 34.1831 19.0371 33.7092 18.9881 28.8563C18.9881 28.5295 19.0044 28.219 19.0371 27.9249C14.5273 26.5033 15.2462 21.6667 17.2887 21.4053C18.7103 21.2255 19.4619 22.0262 19.8377 22.6961C19.8704 22.7942 19.9194 22.8759 19.9685 22.9739C20.2953 23.5295 24.1515 22.4837 27.0926 20.67C28.8083 19.6079 31.4881 17.7778 32.2234 15.768C32.256 15.6863 32.7789 18.2027 35.2299 21.4706C35.1155 23.4151 35.6057 28.268 33.1221 32.2713C31.3247 35.1961 29.0698 35.4576 29.0698 35.4576C29.0698 37.402 32.5175 37.304 33.9554 37.6308C35.7528 38.0229 37.5338 39.1014 37.5338 39.1014C37.5338 39.1014 39.5926 36.2746 37.8443 31.8138Z" fill="black"/>
<path d="M28.5948 25.7516C27.8431 25.768 25.5229 25.7843 24.8039 25.8006C23.5621 25.817 22.6307 24.7385 22.7451 23.513C22.7614 23.1046 22.7451 22.5327 22.7614 22.1242C22.7941 21.0621 23.7418 20.1634 24.8039 20.1961L27.5654 20.2287C27.7778 20.2287 28.3824 20.2451 28.5948 20.2451C29.4771 20.2287 30.3105 20.8823 30.5065 21.7483C30.5719 21.9934 30.5556 22.2549 30.5556 22.4673V23.8562C30.5392 24.8856 29.6242 25.768 28.5948 25.7516ZM28.5948 25.3921C29.4445 25.4248 30.2288 24.6895 30.2451 23.8398C30.2614 23.3987 30.2451 22.9248 30.2451 22.4673C30.3431 21.4706 29.5915 20.5555 28.5784 20.5882C27.8758 20.6046 25.5229 20.6209 24.7876 20.6372C23.9052 20.6372 23.1536 21.4379 23.219 22.3202C23.219 22.4346 23.219 22.7287 23.219 22.8431C23.2353 23.2026 23.1863 23.8235 23.268 24.1503C23.4314 24.8366 24.085 25.3595 24.7876 25.3595H25.1307C25.6046 25.3595 28.1046 25.3921 28.5948 25.3921Z" fill="black"/>
<path d="M35.1798 20.6699L33.889 20.6863C33.5295 20.7026 33.1047 20.6372 32.7942 20.8497C32.5001 21.0457 32.3694 21.4052 32.3857 21.7484C32.3857 22.1732 32.3857 22.6144 32.3694 23.0392L32.353 22.9738C32.5818 23.7745 32.8923 24.5425 33.3661 25.2124L33.2027 25.1144C33.3334 25.147 33.5622 25.147 33.6929 25.147C34.1831 25.1634 34.755 25.1961 35.2452 25.1961C35.7027 25.1961 36.1439 24.8529 36.2419 24.3954C36.2746 24.2647 36.2746 24.0359 36.2746 23.9052C36.2746 23.2026 36.291 22.5163 36.2583 21.8137C36.291 21.1928 35.8171 20.6372 35.1798 20.6699ZM35.1798 20.1797C36.0459 20.1797 36.6504 21.0131 36.5034 21.8301C36.4707 22.5327 36.487 23.2189 36.487 23.9216C36.5687 24.7386 36.0785 25.4738 35.2289 25.5392C34.8694 25.5555 34.5262 25.5555 34.1831 25.5719C34.0034 25.5719 33.5622 25.6046 33.3988 25.6046C33.3171 25.6209 33.1864 25.6046 33.1047 25.6046C33.0393 25.6046 32.974 25.5555 32.9413 25.5065C32.4347 24.7549 32.0753 23.9216 31.8629 23.0555C31.8629 22.5 31.8138 21.9444 31.8629 21.3889C31.9609 20.7353 32.5491 20.1797 33.2191 20.1634C33.6766 20.147 34.7223 20.1797 35.1798 20.1797Z" fill="black"/>
<path d="M30.3758 21.683C30.817 21.4869 31.3072 21.4052 31.7974 21.4379C31.9608 21.4543 32.1242 21.5033 32.2712 21.634L32.4836 21.8137C32.6961 21.9935 32.4346 22.3039 32.2222 22.1242C31.9608 21.8954 31.6503 21.9281 31.3398 21.9444C31.0294 21.9771 30.7353 22.0425 30.4412 22.1569C30.1634 22.2712 29.9836 21.8627 30.2451 21.732C30.2451 21.732 30.3758 21.683 30.3758 21.683Z" fill="black"/>
<path d="M23.023 22.2713C22.9087 22.5327 22.7779 22.5654 22.5655 22.549L22.0917 22.5654C21.1439 22.5654 20.1799 22.549 19.2322 22.402C18.9054 22.3856 18.889 21.9281 19.2158 21.9118L23.0067 21.7811C23.1211 21.7811 23.2028 21.8954 23.1537 21.9935L23.023 22.2713Z" fill="black"/>
</g>
<rect x="0.5" y="0.5" width="49" height="49" rx="3.5" stroke="black"/>
<defs>
<clipPath id="clip0_196_1079">
<rect width="50" height="50" rx="4" fill="white"/>
</clipPath>
</defs>
</svg>
