<svg width="50" height="50" viewBox="0 0 50 50" fill="none" xmlns="http://www.w3.org/2000/svg">
<g clip-path="url(#clip0_196_1164)">
<rect width="50" height="50" rx="4" fill="#3CDD3C"/>
<path d="M38.5784 45.4902C38.464 45.5719 38.3333 45.6536 38.2189 45.7353C38.0882 45.817 37.9738 45.8987 37.8431 45.9641C37.7287 46.0294 37.6307 46.0948 37.5163 46.1602C37.5 46.1765 37.4836 46.1765 37.4673 46.1928C37.0915 46.4216 36.6993 46.634 36.3072 46.8301C36.1928 46.8955 36.0621 46.9608 35.9477 47.0098C35.9477 47.0098 35.9313 47.0262 35.915 47.0262C35.7843 47.0915 35.6536 47.1569 35.5228 47.2223C35.2614 47.353 34.9836 47.4674 34.7222 47.5817C34.5915 47.6471 34.4444 47.6961 34.3137 47.7451C34.183 47.7942 34.0359 47.8595 33.9052 47.9085C33.7745 47.9576 33.6274 48.0229 33.4967 48.0719C33.4967 48.0719 33.4967 48.0719 33.4804 48.0719C33.3496 48.121 33.2026 48.17 33.0719 48.219C32.7777 48.317 32.4673 48.4151 32.1732 48.5131C32.0751 48.5458 31.9607 48.5785 31.8627 48.6111C31.5523 48.7092 31.2418 48.7909 30.9313 48.8562C30.817 48.8889 30.7026 48.9053 30.5719 48.9379C30.2777 49.0033 29.9673 49.0687 29.6732 49.134C29.6078 49.1504 29.5588 49.1504 29.4934 49.1667C29.3954 49.183 29.281 49.1994 29.183 49.2157C29.0359 49.2321 28.9052 49.2647 28.7581 49.2811C28.6928 49.2974 28.6274 49.2974 28.5621 49.3138C28.4804 49.3301 28.3823 49.3464 28.2843 49.3464C28.0228 49.3791 27.7451 49.4118 27.4836 49.4445C27.4019 49.4608 27.3039 49.4608 27.2222 49.4772H27.2058C27.0915 49.4935 26.9771 49.4935 26.8627 49.5098C26.7483 49.5262 26.634 49.5262 26.5196 49.5262C26.4542 49.5262 26.3725 49.5425 26.3072 49.5425C26.1764 49.5425 26.0621 49.5589 25.9477 49.5589C25.7843 49.5589 25.6372 49.5752 25.4738 49.5752C25.3104 49.5752 25.1634 49.5752 25 49.5752C24.8856 49.5752 24.7712 49.5752 24.6568 49.5752C17.7614 49.4772 11.5686 46.5523 7.14049 41.9118C7.14049 41.9118 7.14049 41.8955 7.12415 41.8955C6.63395 41.4543 7.05879 39.1013 9.03591 37.6144C11.5196 35.7353 17.4673 34.5589 17.4673 34.5589C17.4673 34.5589 19.7712 34.183 28.317 35.9641C33.317 37.0098 37.1241 38.5294 39.2483 42.6471C39.6895 43.4968 40.1307 44.804 38.5784 45.4902Z" fill="white"/>
<path d="M28.3661 35.7843C31.5033 36.4216 34.853 37.1079 37.4347 39.183C38.3007 39.8856 38.8726 40.9151 39.3465 41.9118C39.5752 42.402 39.804 42.9085 39.9837 43.4477C40.0818 43.8072 40.2288 44.2157 40.1471 44.6405C40.1308 44.7549 40.0327 44.902 39.951 44.9837C39.5752 45.3595 39.1667 45.5883 38.7582 45.8824C36.3563 47.549 33.5948 48.7255 30.7354 49.3464C24.3628 50.7353 17.4674 49.6569 11.8628 46.3072C10.0001 45.1798 8.28438 43.8072 6.81379 42.1896C6.65039 41.9935 6.65039 41.6667 6.65039 41.4543C6.66673 40.9641 6.79745 40.4902 6.96085 40.049C7.353 39.036 7.85954 38.0229 8.72555 37.3203C9.34647 36.8954 10.0164 36.536 10.7027 36.2418C12.8595 35.3268 15.1308 34.6896 17.4674 34.4281C17.6635 34.4118 17.6961 34.6896 17.5001 34.7222C15.2615 35.1798 13.0393 35.866 10.9641 36.7974C10.2125 37.1732 9.41183 37.5 8.80725 38.0883C8.23536 38.7092 7.82686 39.4771 7.50006 40.2615C7.28765 40.7353 7.14059 41.4869 7.20595 41.8628C8.23536 43.0883 9.44451 44.1667 10.7517 45.0981C17.9086 50.0981 28.7746 50.4249 36.389 46.2582C37.0752 45.8824 37.7452 45.4575 38.3824 45.0164C38.6929 44.8039 39.0197 44.6242 39.2648 44.3791C39.2811 44.3628 39.2648 44.3791 39.2648 44.3954C39.2648 44.4118 39.2484 44.4281 39.2484 44.4281C39.2648 44.232 39.1994 43.9706 39.1177 43.7092C38.8236 42.7615 38.3497 41.7647 37.8432 40.8987C37.0425 39.6079 35.6863 38.7909 34.3138 38.1373C33.3661 37.6961 32.3693 37.353 31.3563 37.0262C30.3432 36.6994 29.3138 36.4216 28.2844 36.1765C28.0229 36.1111 28.1046 35.7353 28.3661 35.7843Z" fill="black"/>
<path d="M34.5261 39.2157C34.5261 39.2157 31.9608 36.5523 29.4608 35.9804C29.4608 35.9804 29.7876 40.4739 26.8137 40.1634C22.0098 39.6569 17.4837 34.5588 17.4837 34.5588C17.4837 34.5588 14.5915 34.1994 12.0425 36.1438C12.0425 36.1438 12.1078 42.402 17.8595 44.8856C23.5948 47.3693 31.585 46.1438 33.4804 44.5425C35.3595 42.9412 34.9837 39.7549 34.5261 39.2157Z" fill="white" stroke="black" stroke-width="0.125" stroke-miterlimit="10" stroke-linecap="round" stroke-linejoin="round"/>
<path d="M8.77466 37.6144C8.77466 37.6144 7.92499 38.121 7.22237 39.5916C6.63414 40.8661 6.38904 42.9086 5.84982 45.2942C4.67335 50.5393 3.77466 57.6144 3.77466 57.6144H41.0622C41.0622 57.6144 41.5361 43.8073 38.1374 39.755C37.7779 39.3138 36.389 38.6275 36.3237 38.6929C35.2289 39.7059 35.0328 45.0327 29.3302 45.3269C22.0917 45.6863 13.3825 43.3988 13.1701 42.0589C12.974 40.7027 8.77466 37.6144 8.77466 37.6144Z" fill="black" stroke="black" stroke-width="0.125" stroke-miterlimit="10" stroke-linecap="round" stroke-linejoin="round"/>
<path d="M37.8433 57.9086C27.5818 62.6471 10.6864 58.3661 10.6864 58.3661C10.6864 58.3661 10.3433 54.1994 11.5851 46.6994C11.6341 46.3563 11.6831 46.0131 11.7158 45.7027C12.0753 42.304 9.64065 39.1014 8.7583 37.6308C8.7583 37.255 9.0851 36.9118 9.59163 36.6177C11.6178 35.4413 14.5099 34.755 14.6407 34.853C14.8694 35.1798 15.1472 36.1112 15.3433 36.4543C17.1733 39.8367 17.8106 43.4641 21.6178 43.987C25.3759 44.5099 29.0034 44.4282 31.6014 43.8563C34.1014 43.3007 32.3858 38.8726 31.291 36.8301C31.242 36.7484 31.1439 36.487 31.1112 36.4543C31.4871 36.2092 36.2583 37.9086 36.5851 39.1504C37.3041 40.9478 37.2224 44.4609 37.4348 46.2092C38.1537 51.9118 37.8433 57.9086 37.8433 57.9086Z" fill="black"/>
<path d="M38.1864 58.1537C37.8923 58.3497 37.5328 58.5131 37.206 58.6439C30.9315 61.0785 23.987 60.8007 17.4184 60.0164C15.1145 59.7059 12.8432 59.3138 10.5883 58.7746C10.4086 58.7256 10.2779 58.5785 10.2779 58.3988C10.1145 54.7713 10.5066 51.1765 11.0295 47.5981C11.0949 47.1242 11.2746 46.0785 11.3073 45.621C11.487 43.6765 10.7517 41.7974 9.82036 40.1144C9.39553 39.3465 8.90533 38.6112 8.41513 37.8269C8.20272 37.3693 8.59487 36.8628 8.90533 36.585C9.62429 36.0131 10.4413 35.7027 11.2583 35.3432C12.0589 35.0327 12.8759 34.755 13.7256 34.5425C14.0361 34.4772 14.3465 34.3791 14.6896 34.3955C14.7713 34.3955 14.9347 34.4772 15.0001 34.5752C15.3596 35.1471 15.474 35.7844 15.7844 36.3563C17.206 38.9053 17.8923 42.6798 21.0785 43.5131C22.2877 43.7746 23.5622 43.8726 24.7877 43.9543C26.6668 44.0687 28.5622 44.0523 30.4249 43.7909C30.7354 43.7419 31.0459 43.6929 31.3563 43.6275C31.6341 43.5785 31.9282 43.5131 32.1406 43.3334C33.3661 42.2713 32.304 39.4608 31.7975 38.17C31.6014 37.7125 31.4053 37.2713 31.1766 36.8301C31.1276 36.7321 31.0785 36.6014 31.0295 36.5033C31.0295 36.487 31.0132 36.4706 31.0295 36.487L31.0459 36.2746C31.1766 36.1275 31.291 36.1112 31.4544 36.0785C31.8955 36.0785 32.3367 36.2582 32.7615 36.3889C33.791 36.7321 34.7713 37.1406 35.7027 37.6961C36.0622 37.9249 36.438 38.17 36.7158 38.5131C36.8138 38.6439 36.9119 38.7909 36.9772 38.987L36.9609 38.938C37.2713 39.7386 37.4021 40.5393 37.5001 41.3399C37.7452 43.2844 37.7289 45.2942 38.0066 47.2223C38.3498 50.67 38.4151 54.134 38.2681 57.5981V57.7452V57.8269C38.2681 57.9576 38.2354 58.072 38.1864 58.1537ZM37.5001 57.6798C37.4674 57.7125 37.4511 57.7452 37.4347 57.7942V57.8105V57.8269C37.4511 57.5491 37.4674 57.0262 37.4674 56.7321C37.5491 53.219 37.4511 49.6733 37.0426 46.1929C36.8792 44.6079 36.8792 43.0556 36.6995 41.487C36.6014 40.719 36.487 39.951 36.2256 39.2974C36.2093 39.2157 36.1766 39.1667 36.0949 39.0687C35.523 38.4478 34.706 38.0883 33.938 37.7288C33.072 37.3693 32.1733 36.9772 31.2419 36.8465C31.2419 36.8465 31.2419 36.8465 31.2583 36.8465C31.291 36.8301 31.3236 36.8301 31.3563 36.7974L31.4217 36.1439C31.438 36.1602 31.438 36.1765 31.4544 36.1765C31.5034 36.2255 31.5361 36.3073 31.5687 36.3726C31.6178 36.4706 31.6504 36.585 31.6995 36.6667C32.6308 38.4314 34.6733 43.072 32.0099 44.1504C31.5361 44.3138 31.0295 44.3791 30.523 44.4608C27.974 44.8367 25.3923 44.804 22.8269 44.5425C22.1733 44.4608 21.5361 44.4118 20.8825 44.2648C18.0883 43.6275 16.9119 40.7844 15.8661 38.4641C15.4903 37.5818 14.9838 36.7648 14.6406 35.8661C14.5426 35.621 14.4282 35.2942 14.2975 35.0981L14.3792 35.1961C14.4282 35.2452 14.5099 35.2615 14.5753 35.2778C14.5753 35.2778 14.5753 35.2778 14.5589 35.2778L14.4772 35.2942C13.4968 35.4249 9.29749 36.7648 9.16677 37.6635L9.10141 37.451C10.5557 39.7223 12.1406 42.2223 12.1406 45.0327C12.1243 45.8497 11.9445 46.9608 11.8138 47.7615C11.5524 49.5262 11.3236 51.2909 11.1929 53.072C11.0622 54.8203 10.9805 56.634 11.0622 58.3824L10.7517 58.0066C12.9576 58.5295 15.2289 58.9216 17.4838 59.2321C23.9217 60.0001 30.7191 60.2942 36.8465 57.9249C37.0426 57.8105 37.3204 57.6635 37.5001 57.6798Z" fill="white"/>
<path d="M15.4087 43.7255C15.905 43.7255 16.3074 43.3232 16.3074 42.8269C16.3074 42.3305 15.905 41.9282 15.4087 41.9282C14.9124 41.9282 14.51 42.3305 14.51 42.8269C14.51 43.3232 14.9124 43.7255 15.4087 43.7255Z" fill="black"/>
<path d="M34.9184 44.085C35.3155 44.085 35.6374 43.7631 35.6374 43.366C35.6374 42.969 35.3155 42.6471 34.9184 42.6471C34.5213 42.6471 34.1995 42.969 34.1995 43.366C34.1995 43.7631 34.5213 44.085 34.9184 44.085Z" fill="white"/>
<path d="M22.7452 45.4412C24.6896 45.5883 26.634 45.67 28.5785 45.621C29.3138 45.6046 30.0327 45.5556 30.7517 45.4739C31.5033 45.3595 32.304 45.4902 32.9576 45.8987C33.8399 46.4216 34.4282 47.3857 34.5262 48.4151C34.5752 48.9053 34.6079 49.3955 34.6569 49.8857C34.7386 50.866 34.7713 51.8628 34.755 52.8432C34.7386 53.3497 34.7059 53.8726 34.6242 54.3791C34.4282 55.2288 33.7256 55.8334 32.9903 56.2255C29.9837 57.7942 25.1308 57.7451 21.8955 56.8791C20.6373 56.5033 18.9053 55.8497 18.8236 54.2811C18.8073 54.1667 18.7909 53.8562 18.7746 53.7419C18.7256 53.0066 18.5948 51.5523 18.5458 50.8334C18.5131 50.3922 18.4314 49.7549 18.4641 49.3138C18.5131 47.1242 20.5556 45.2615 22.7452 45.4412ZM22.6961 46.1275C20.7354 46.0131 19.0033 47.6798 19.1504 49.6569C19.2321 50.8497 19.3955 52.4674 19.4935 53.6602L19.5262 54.0196L19.5425 54.1994C19.5589 54.902 20.1635 55.3105 20.7844 55.6209C23.5948 56.8628 27.6308 56.7974 30.6046 56.1438C31.7648 55.8497 33.3988 55.3759 33.8236 54.1504C34.1014 52.7451 34.1831 51.3072 34.2157 49.8693C34.1994 48.9379 34.3138 47.9249 33.7909 47.0915C33.3171 46.2745 32.4184 45.7517 31.487 45.719C31.0131 45.7026 30.5393 45.8334 30.0491 45.8824C29.5589 45.9477 29.0687 45.9968 28.5785 46.0294C26.634 46.2092 24.6569 46.2092 22.6961 46.1275Z" fill="black"/>
<path d="M27.4675 40.1634C27.4675 40.1634 24.4773 43.7909 23.5623 43.5131C22.6472 43.2353 16.9609 39.8856 16.0623 34.7059C16.0623 34.7059 16.7649 33.8889 17.3858 33.5458C17.3858 33.5458 19.1505 33.2353 19.2649 33.3987C19.3792 33.5785 18.023 34.4935 18.2518 34.8039C19.0198 35.8497 20.2453 37.2386 22.206 38.3824C25.1636 40.1144 27.4675 40.1634 27.4675 40.1634Z" fill="white"/>
<path d="M27.8597 40C27.9741 40.1144 27.7943 40.5066 27.7943 40.4412C27.778 40.4739 27.729 40.5066 27.6963 40.5392C26.6669 41.5196 25.7192 42.5491 24.5427 43.366C24.2159 43.5785 23.7747 43.8399 23.3826 43.6438C22.3858 43.1863 21.5035 42.5327 20.6375 41.8628C18.3989 40.0491 16.4381 37.6471 15.8662 34.7549C15.8499 34.6896 15.8662 34.6406 15.9153 34.5915C16.095 34.3301 16.2911 34.1013 16.4872 33.8562C16.6996 33.6275 16.9447 33.3497 17.2551 33.17C17.5819 33.0883 17.9251 33.0719 18.2682 33.0392C18.6277 33.0229 18.9708 32.9575 19.3303 33.0392C19.3793 33.0556 19.4283 33.0556 19.5264 33.1373C19.8368 33.4314 19.5754 33.7745 19.3466 33.987C19.0852 34.2484 18.7911 34.4608 18.595 34.7386C18.546 34.804 18.595 34.7713 18.5623 34.6732C18.5623 34.6406 18.5133 34.6079 18.546 34.6406C18.5623 34.6732 18.6277 34.7549 18.644 34.7876C19.2649 35.7353 20.0329 36.5687 20.8989 37.2876C22.729 38.7255 25.0329 39.7713 27.4022 39.7713C27.5656 39.7223 27.778 39.8366 27.8597 40ZM27.0917 40.3432C27.1244 40.4575 27.3041 40.5883 27.4185 40.5883H27.3858L27.3205 40.5719C23.7747 39.8203 20.4577 37.9249 18.1211 35.1634C18.0558 35.0654 17.9904 35.0327 17.9251 34.8857C17.8434 34.5752 18.0068 34.3628 18.1702 34.1667C18.4153 33.8562 18.7257 33.6275 18.9381 33.3334C18.8728 33.4151 18.9218 33.6111 19.0198 33.6928C19.0852 33.7419 19.1015 33.7419 19.1179 33.7419C19.1342 33.7419 19.1015 33.7419 19.0852 33.7419C18.546 33.7582 18.0068 33.8726 17.4839 33.9706L17.6146 33.9216C17.1244 34.1177 16.6505 34.4935 16.2421 34.853L16.2911 34.6896C16.8466 38.4151 20.2453 41.7647 23.5296 43.3334C24.1015 43.6111 25.4741 42.0262 25.8662 41.6013C26.3238 41.0785 26.7649 40.5229 27.1571 39.951L27.1734 39.9347C27.1571 39.8366 26.9773 40.2288 27.0917 40.3432Z" fill="black"/>
<path d="M27.4675 40.1634C27.4675 40.1634 29.7878 42.8758 30.5558 42.9085C31.3237 42.9412 31.6505 38.1699 29.3466 35.7516C29.3466 35.7516 27.6963 34.3791 28.8401 35.8824C28.8401 35.8824 29.9839 39.3628 27.4675 40.1634Z" fill="black"/>
<path d="M27.8758 40.2778C27.9412 40.1634 27.8268 39.902 27.7941 39.902V39.9183C27.7778 40.0654 27.8268 40.1798 27.8758 40.2778C28.415 40.9641 29.0523 41.585 29.7059 42.1079C29.9673 42.3039 30.2614 42.5654 30.5556 42.6307C30.5556 42.6307 30.5556 42.6307 30.5392 42.6307C30.5229 42.6307 30.5065 42.6307 30.5065 42.6307C30.6373 42.4837 30.6863 42.2222 30.7353 41.9771C31.0131 39.951 30.5065 37.4837 29.1013 35.9641L29.134 35.9967C28.9216 35.817 28.6438 35.6046 28.4314 35.4739C28.4314 35.4739 28.4314 35.4902 28.5458 35.4739C28.6438 35.4575 28.7418 35.3431 28.7418 35.2451C28.7418 35.2288 28.7418 35.2124 28.7418 35.1961C28.7418 35.1634 28.7418 35.1634 28.7418 35.1634C28.8072 35.3595 28.9706 35.5556 29.0686 35.7516C29.085 36.6667 29.3954 37.451 29.232 38.3824C29.1503 39.2484 28.5621 40.0981 27.7451 40.4739H27.7288C27.8268 40.4739 27.8758 40.3758 27.8758 40.2778ZM27.0752 40.049C27.1405 39.9183 27.3039 39.7876 27.451 39.7386C27.5817 39.7059 27.7288 39.6569 27.8595 39.5915C28.7745 39.1667 28.9869 38.0392 28.9379 37.1079C28.9216 36.6994 28.8726 36.2582 28.5948 35.9477L28.6275 36.0294C28.5458 35.7516 28.3824 35.5229 28.3497 35.2288C28.3987 34.8856 28.8562 35.3758 28.9706 35.4412L29.3301 35.7516C30.8333 37.353 31.6503 40.3105 31.1601 42.4837C31.0784 42.8105 30.8333 43.2843 30.4085 43.1699C29.9673 43.0556 29.6732 42.7778 29.3628 42.5C28.9869 42.1569 28.6438 41.7811 28.3007 41.4216L27.7778 40.8824C27.6634 40.768 27.5654 40.6373 27.4346 40.5556C27.3366 40.5065 27.2386 40.4575 27.1405 40.4412C27.1242 40.4412 27.0098 40.1634 27.0752 40.049Z" fill="black"/>
<path d="M27.2388 40.4412C27.2388 40.4412 26.7813 40.9477 26.9447 42.0588C27.1081 43.1536 27.0754 44.2483 27.0754 44.2483" fill="black"/>
<path d="M27.5655 40.719C27.5655 40.7027 27.5655 40.7027 27.5655 40.719C27.5165 40.7354 27.4838 40.768 27.4511 40.8007C27.108 41.2092 27.108 41.7811 27.157 42.2876C27.2223 42.9739 27.2223 43.5948 27.5001 44.2484C27.7289 44.804 26.9119 45.1471 26.6668 44.6079C26.6178 44.4772 26.6341 44.3465 26.6668 44.2321C26.7321 43.9216 26.7648 43.6112 26.7648 43.2844C26.7812 42.4347 26.4544 41.6014 26.6831 40.7517C26.7321 40.5393 26.8138 40.3432 26.9446 40.1635C27.304 39.755 27.9086 40.2942 27.5655 40.719Z" fill="black"/>
<path d="M28.0882 42.8922C28.2958 42.8922 28.464 42.7239 28.464 42.5164C28.464 42.3088 28.2958 42.1406 28.0882 42.1406C27.8807 42.1406 27.7124 42.3088 27.7124 42.5164C27.7124 42.7239 27.8807 42.8922 28.0882 42.8922Z" fill="black"/>
<path d="M17.3529 33.1373C17.5163 33.3497 17.6307 33.3661 17.7614 33.3497L18.1372 33.3171C20.1797 33.2027 22.2222 33.023 24.2647 33.268C25.5555 33.4151 26.8137 33.889 27.8921 34.6406C28.317 34.9674 28.7581 35.3269 28.9379 35.8497C28.9542 35.8988 28.9215 35.9641 28.8562 35.9805C28.7908 35.9968 28.7418 35.9641 28.7255 35.9151C28.4804 35.523 28.0392 35.2452 27.647 35.0164C26.7974 34.5426 25.866 34.1667 24.9019 33.9543C22.9411 33.5458 20.915 33.4968 18.9052 33.6112C18.5457 33.6275 18.1372 33.6765 17.7777 33.7092C17.647 33.7092 17.5326 33.7419 17.4346 33.987C16.8954 34.0197 16.7974 33.219 17.3529 33.1373Z" fill="black"/>
<path d="M29.9018 40.1307C29.5587 41.8137 27.3365 42.8268 23.5946 41.3072C19.7057 39.7386 18.0227 35.9967 17.5979 34.8856C19.9018 30.5719 18.3005 27.5817 18.3005 27.5817C23.611 27.1242 28.2515 33.3333 28.2515 33.3333L28.9705 36.4052C29.0358 36.6667 29.1665 36.8954 29.3626 37.0588C29.7057 37.6634 30.1142 39.0523 29.9018 40.1307Z" fill="white"/>
<path d="M17.5162 34.9347C17.8267 34.4608 18.0228 33.9053 18.1535 33.366C18.3986 32.2386 18.4803 31.0948 18.4966 29.951V29.5262C18.4476 29.1013 18.3005 28.6602 18.1371 28.268C17.9247 27.7451 18.6927 27.4183 18.9378 27.9412C18.9705 28.0066 18.9705 28.1209 18.9705 28.1863C19.0195 30.4085 19.1175 33.268 17.7123 35.1144C17.6143 35.2124 17.4182 35.0654 17.5162 34.9347Z" fill="black"/>
<path d="M28.4313 33.3007C28.6764 33.4477 28.7581 33.6438 28.7908 33.8399C28.8888 34.232 28.8561 34.6569 28.9542 35.0654C29.0359 35.4575 29.281 35.8333 29.3463 36.2418C29.428 36.6667 29.6731 37.5654 29.7712 38.0066C29.8038 38.1046 29.7385 38.219 29.6241 38.2353C29.5587 38.2516 29.5097 38.2353 29.4607 38.2026C29.2483 38.0229 29.1502 37.8431 29.0195 37.6144C28.8071 37.2222 28.66 36.8628 28.5293 36.4216C28.4149 36.0294 28.464 35.6046 28.3659 35.1961C28.2842 34.8039 28.0555 34.4281 27.9738 34.0196C27.9248 33.8235 27.9084 33.6111 28.0555 33.366C28.1535 33.268 28.3169 33.2353 28.4313 33.3007Z" fill="black"/>
<path d="M29.6077 37.6144C26.4868 37.451 23.9378 36.4706 21.4541 32.0425C23.5456 33.8889 26.0129 34.5915 28.611 34.9183L28.9541 36.4216C29.0195 36.683 29.4116 37.451 29.6077 37.6144Z" fill="black"/>
<path d="M29.4771 37.0098C30.0326 38.0556 30.3594 39.3628 30.0163 40.5229C29.7549 41.3399 29.0032 41.9445 28.1862 42.1732C26.2908 42.6798 24.1013 41.8791 22.4182 40.9804C20.3431 39.8203 18.8071 37.8758 17.8267 35.7516C17.7614 35.5882 17.9901 35.4575 18.0882 35.6209C18.4313 36.3072 18.8235 36.9771 19.2647 37.5817C19.7058 38.2026 20.2124 38.7745 20.7843 39.2811C22.4509 40.7843 24.7058 41.7157 26.9607 41.7157C29.281 41.6503 30.1633 40.4249 29.6241 38.1699C29.5424 37.8105 29.4117 37.4347 29.232 37.1242C29.1339 36.9935 29.379 36.8464 29.4771 37.0098Z" fill="black"/>
<path d="M35.8005 17.3857C36.0947 18.7582 36.2417 19.8693 35.4411 23.5294C34.6568 27.1732 36.5685 27.9249 32.0424 33.7582C30.196 36.1438 25.7188 35.4739 22.0914 33.0066C20.8659 32.1732 20.343 30.0327 19.428 28.5131C18.709 27.3203 18.3822 28.5621 17.4345 27.5327C16.1437 26.1275 14.5914 23.3007 15.3594 18.3007C16.6012 10.1961 23.0228 9.2484 27.7777 10.1471C32.5653 11.0621 35.0162 13.7745 35.8005 17.3857Z" fill="white"/>
<path d="M18.2517 28.987C17.8759 28.3497 17.3857 27.7941 16.9282 27.2059C16.487 26.6013 16.1275 25.9314 15.8334 25.2451C13.889 20.4739 14.6406 13.7582 19.4118 10.9477C21.389 9.80395 23.7746 9.52617 25.9968 9.70591C30.7517 10.049 35.1145 12.2386 36.1439 17.2713C36.6994 19.4935 35.9478 21.7811 35.5229 23.9543C35.3269 25.0327 35.4903 26.1438 35.4739 27.2549C35.4576 28.3824 35.1471 29.5098 34.7223 30.5556C34.4609 31.2745 34.0033 31.9118 33.5295 32.5C32.7452 33.4477 31.9609 34.4118 30.9641 35.1471C30.7354 35.3105 30.3269 35.3922 30.0491 35.4249C29.2811 35.5392 28.5295 35.5719 27.7615 35.5229C24.755 35.3922 21.536 33.9379 20.3269 31.0294C20.2778 30.9151 20.4412 30.8334 20.5066 30.9314C22.0752 33.4151 24.9511 34.6406 27.8105 34.804C28.6929 34.853 29.5916 34.8366 30.4576 34.6569C30.8824 34.4445 31.2582 34.0687 31.6177 33.7255C32.5001 32.8432 33.3988 31.8955 34.036 30.817C34.804 29.3628 35.2288 27.7778 35.0981 26.1275C35.0654 25.3922 35.0491 24.6242 35.1961 23.8889C35.3269 23.1536 35.4903 22.451 35.5883 21.6994C35.6863 20.9804 35.7354 20.2451 35.7354 19.5262C35.6537 17.4183 34.9674 15.2451 33.6275 13.6111C30.67 9.93467 23.6765 8.97062 19.7386 11.487C17.255 13.0229 16.0948 15.8987 15.719 18.6928C15.1471 22.0425 15.3105 25.3432 17.9739 27.7778L18.7582 28.5948C19.0687 28.9543 18.5131 29.3791 18.2517 28.987Z" fill="black"/>
<path d="M20.1797 23.7909C20.1797 23.7909 19.6732 21.3399 17.2876 21.634C15.2288 21.8954 14.5098 26.8301 19.183 28.2026" fill="white"/>
<path d="M18.9705 26.0621C18.5947 25.8497 18.3333 25.4902 18.3169 25.049C18.3333 24.7222 18.3823 24.3464 18.3006 24.0196C18.2516 23.7092 17.9248 23.6275 17.6797 23.6438C17.4182 23.6928 17.2548 24.0196 17.2058 24.2811C17.2058 24.2974 17.1895 24.3464 17.1895 24.3628C17.1731 24.4445 17.0424 24.4445 17.0097 24.3628C16.7973 23.7255 17.2712 23.0229 17.9574 23.1046C18.9215 23.17 19.0522 24.183 18.8725 24.951C18.7744 25.2778 18.9051 25.5719 19.0849 25.8497L19.1176 25.8987C19.1993 25.9967 19.0685 26.1275 18.9705 26.0621Z" fill="black"/>
<path d="M32.0425 22.0588C32.2876 23.219 32.7451 24.2974 33.317 25.3105C33.8236 26.5523 32.5164 27.7288 31.3562 27.6797C31.2255 27.6797 31.2092 27.5 31.3236 27.4673C32.0589 27.2386 32.7288 26.7484 32.8432 25.9967C32.8922 25.768 32.8268 25.5719 32.7124 25.3758C32.1732 24.3628 31.8464 23.2026 31.9281 22.0588C31.9281 21.9771 32.0425 21.9771 32.0425 22.0588Z" fill="black"/>
<path d="M20.0981 23.8072C19.7223 22.8432 18.9053 21.9281 17.8105 21.9445C17.7125 21.9281 17.5491 21.9608 17.451 21.9608C17.1733 21.9772 16.9445 22.0752 16.7321 22.2713C15.6863 23.317 15.8661 25.1634 16.7157 26.3236C17.0099 26.7321 17.3857 27.0915 17.8105 27.3857C18.2354 27.6798 18.7092 27.9085 19.2157 28.1046C19.3301 28.1373 19.2811 28.317 19.1667 28.3007C18.072 28.0719 17.0262 27.5327 16.3073 26.634C15.1961 25.2942 14.9674 23.0556 16.2909 21.7484C16.585 21.487 16.9935 21.2909 17.402 21.2909C17.5327 21.2909 17.7288 21.2582 17.8595 21.2909C18.5458 21.3236 19.1994 21.6667 19.6242 22.2059C20.0001 22.6634 20.2125 23.219 20.2778 23.7746C20.2778 23.8726 20.1308 23.9053 20.0981 23.8072Z" fill="black"/>
<path d="M30.8006 29.3137C29.7549 30.3104 27.7777 29.5098 27.2549 28.3006C27.1895 28.1536 27.3529 28.0228 27.4836 28.0882C27.7614 28.2353 28.0065 28.3823 28.2679 28.4967C29.0196 28.8398 29.8039 29.1176 30.6372 29.0359C30.8006 29.0032 30.915 29.1993 30.8006 29.3137Z" fill="black"/>
<path d="M25.9478 23.7255C25.5557 23.7091 25.2615 23.3823 25.2942 22.9902L25.3106 22.5327C25.3269 22.1405 25.6537 21.8464 26.0459 21.8791C26.438 21.8954 26.7321 22.2222 26.6995 22.6144L26.6831 23.0719C26.6668 23.4477 26.34 23.7418 25.9478 23.7255Z" fill="black"/>
<path d="M32.8267 23.9706C32.4672 23.9543 32.1894 23.6438 32.2058 23.2844L32.2221 22.8595C32.2384 22.5 32.5489 22.2223 32.9084 22.2386C33.2679 22.2549 33.5456 22.5654 33.5293 22.9249L33.513 23.3497C33.4966 23.7092 33.1862 23.987 32.8267 23.9706Z" fill="black"/>
<path d="M27.4185 22.8431C26.8792 22.4837 26.291 22.2386 25.6374 22.3693C25.425 22.402 25.2126 22.4673 25.0819 22.6144C25.0328 22.6797 24.9185 22.6634 24.9185 22.5654C24.9348 22.2386 25.2126 22.0261 25.474 21.8954C25.9805 21.634 26.6832 21.683 27.1407 22.0261C27.3041 22.1242 27.8596 22.7288 27.5655 22.8595C27.5002 22.8922 27.4675 22.8758 27.4185 22.8431Z" fill="black"/>
<path d="M32.0916 22.9248C32.0916 22.2386 32.9412 21.9935 33.4641 22.2386C33.7582 22.3693 33.9706 22.6307 34.0523 22.9412C34.085 23.0392 33.938 23.1209 33.8726 23.0392C33.5948 22.7124 33.121 22.549 32.7451 22.7451C32.6308 22.8105 32.6144 22.8595 32.5817 22.9248C32.5817 23.2516 32.1079 23.2353 32.0916 22.9248Z" fill="black"/>
<path d="M28.2027 20.1471C28.5458 20.2615 28.8889 19.951 28.8236 19.5752C28.7909 19.3791 28.7092 19.183 28.5458 19.036C28.0556 18.5948 26.0295 18.2026 24.804 18.7745C23.7255 19.2974 26.634 19.6242 28.2027 20.1471Z" fill="black"/>
<path d="M33.0883 20.4085C32.8105 20.5065 32.5164 20.2124 32.5654 19.8693C32.5818 19.6896 32.6471 19.5098 32.7779 19.3791C33.17 18.9869 34.5099 18.6765 35.3596 19.2811C36.0949 19.7876 34.3628 19.9347 33.0883 20.4085Z" fill="black"/>
<path d="M35.8008 17.3856C35.7517 17.1405 35.6864 16.8791 35.6047 16.634C35.523 16.3889 35.3269 16.1765 35.0655 16.1275C34.2158 15.9804 33.3988 16.4052 32.2223 16.2418C28.4805 15.7353 25.9805 14.1503 22.4674 15.5229C18.84 16.9281 20.8988 22.7778 20.1308 23.6765C20.0001 23.219 19.3628 21.3562 17.2713 21.6177C15.2942 21.8628 14.5426 26.4379 18.6275 28.0066C18.5949 28.9052 16.9772 29.7549 15.67 28.1863C14.3628 26.6177 11.7485 22.549 13.5132 16.6013C15.2779 10.6536 23.2681 7.54903 30.7027 10.5719C31.9772 11.0948 32.7942 12.2222 33.8563 12.5981C36.0458 13.3987 36.0622 18.5458 35.8008 17.3856Z" fill="black"/>
<path d="M18.6602 28.0229C18.6602 28.0229 18.6276 29.3628 17.255 31.8464C17.255 31.8464 16.9282 30.4739 16.2093 29.2157C15.5067 27.9576 14.1178 25.3268 13.2681 22.6961C12.4184 20.0654 13.987 23.3334 14.7877 24.4281C15.5884 25.5229 16.0949 28.1863 18.6602 28.0229Z" fill="black"/>
<path d="M16.3563 26.6994C16.3563 26.6994 15.8988 29.755 18.8236 33.6112C21.7485 37.4674 21.9119 41.4216 20.8334 45.6046C20.8334 45.6046 19.1341 44.3465 13.987 40.6536C8.83997 36.9608 7.59814 30.6536 14.3628 24.7059C14.3792 24.7059 16.291 25.0654 16.3563 26.6994Z" fill="black"/>
<path d="M28.072 13.5131C28.6765 13.8889 29.3301 14.134 30.0328 14.183C30.8988 14.2484 32.1896 14.8366 34.085 16.5523C36.3236 18.5785 35.2125 5.32683 21.2746 8.46409C16.5033 9.52618 13.1046 13.7419 12.5164 18.4641C12.4837 18.7909 12.4511 19.1177 12.4347 19.4445C12.304 23.7909 15.8171 27.5817 15.8171 27.5817C15.8171 27.5817 14.3792 21.536 17.6635 19.036C20.6373 16.7647 22.7125 14.1013 25.3105 14.1013C26.8792 14.085 27.7125 13.3007 28.072 13.5131Z" fill="black"/>
<path d="M28.5295 10C28.5295 10 33.4805 19.4281 35.9315 19.3464C38.3825 19.2647 40.9315 11.585 35.7354 8.6765C32.108 6.63402 28.5295 10 28.5295 10Z" fill="black"/>
<path d="M30.7354 12.6634C30.7354 12.6634 34.7876 16.9934 32.8759 18.2353C31.7811 18.9379 30.7354 16.8137 30.7354 16.8137C30.7354 16.8137 29.4445 18.9215 27.3857 17.8595C25.3269 16.8137 26.6994 13.7908 26.6994 13.7908C26.6994 13.7908 29.4935 10.9804 30.7354 12.6634Z" fill="black"/>
<path d="M27.1078 14.134C27.1078 14.134 26.3725 18.5948 22.9084 19.2484C19.4444 19.902 19.0359 16.3399 19.0359 16.3399C19.0359 16.3399 24.1666 10.7026 27.1078 14.134Z" fill="black"/>
<path d="M21.4053 19.8856C21.4053 19.8856 16.6831 20.3268 14.657 19.8039C14.657 19.8039 14.9838 14.183 17.3204 11.1928C19.657 8.2026 28.7256 8.18626 32.3367 9.52613C35.6047 10.7516 36.0295 16.3072 36.0295 16.3072L21.4053 19.8856Z" fill="black"/>
<path d="M36.0457 16.3072L22.0261 19.7386C21.9444 17.8595 21.7483 13.7092 22.7124 11.5196C23.8725 8.88891 30.6209 8.90525 33.4477 10.2451C35.7026 12.451 36.0457 16.3072 36.0457 16.3072Z" fill="black"/>
<path d="M36.2418 16.4542C31.5359 17.647 26.8137 18.8235 22.0914 19.9673C21.9607 20 21.83 19.9183 21.7973 19.7876C21.7156 18.1209 21.6993 16.4379 21.8463 14.7549C21.9771 13.5131 22.1241 12.1895 22.7614 11.0948C23.9705 9.46077 26.732 9.24835 28.5947 9.24835C30.196 9.26469 32.2548 9.57515 33.4803 10.2124C35.1143 11.7647 35.915 14.0033 36.2744 16.1765C36.2908 16.2582 36.3071 16.3562 36.2418 16.4542ZM35.8496 16.1601C35.8169 16.1928 35.8006 16.2908 35.8006 16.3072C35.8006 16.2582 35.7842 16.1601 35.7842 16.1111C35.5882 14.0359 34.7875 11.732 33.4476 10.2778C31.3725 9.37907 28.5293 9.23201 26.1601 9.65685C24.9999 9.90195 23.7418 10.2614 23.0391 11.2582C21.9117 13.3987 22.1731 17.2712 22.2875 19.7059L21.9771 19.4771C26.5849 18.366 31.2091 17.2549 35.8496 16.1601Z" fill="black"/>
<path d="M39.1832 19.3301C39.1832 21.3072 35.9806 20.4249 35.9806 20.4249C36.0623 19.6242 36.0623 19.0196 35.9969 18.4968C35.9479 18.1209 35.8825 17.7615 35.8008 17.402C35.7355 17.1406 35.6701 16.8791 35.6047 16.6177C36.6505 16.5033 37.4348 16.7974 37.9904 17.2223C38.84 17.8758 39.1832 18.8399 39.1832 19.3301Z" fill="black" stroke="black" stroke-width="0.125" stroke-miterlimit="10" stroke-linecap="round" stroke-linejoin="round"/>
<path d="M29.2811 13.4804C30.1293 13.4804 30.817 12.7927 30.817 11.9445C30.817 11.0962 30.1293 10.4085 29.2811 10.4085C28.4328 10.4085 27.7451 11.0962 27.7451 11.9445C27.7451 12.7927 28.4328 13.4804 29.2811 13.4804Z" fill="white"/>
<path d="M30.817 11.9445C30.817 12.6471 30.3431 13.2353 29.7058 13.4151C29.0686 13.2353 28.5947 12.6471 28.5947 11.9445C28.5947 11.2419 29.0686 10.6536 29.7058 10.4739C30.3431 10.6536 30.817 11.2419 30.817 11.9445Z" fill="#C9C9C9"/>
<path d="M31.6503 11.9445C31.6503 12.7942 30.964 13.4804 30.1143 13.4804C30.0816 13.4804 30.0326 13.4804 29.9999 13.4804C29.9672 13.4804 29.9346 13.4804 29.9019 13.4641C29.8692 13.4641 29.8365 13.4477 29.8038 13.4477C29.7712 13.4477 29.7385 13.4314 29.7058 13.4314C30.3431 13.2517 30.8169 12.6634 30.8169 11.9608C30.8169 11.2582 30.3431 10.67 29.7058 10.4902C29.7385 10.4739 29.7712 10.4739 29.8038 10.4739C29.8365 10.4739 29.8529 10.4576 29.8855 10.4576C29.9019 10.4576 29.9182 10.4576 29.9346 10.4576C29.9509 10.4576 29.9672 10.4576 29.9999 10.4576C30.0489 10.4576 30.0816 10.4576 30.1306 10.4576C30.964 10.4085 31.6503 11.0948 31.6503 11.9445Z" fill="black"/>
<path d="M29.2811 10.8007C29.9183 10.8007 30.4249 11.3072 30.4249 11.9445C30.4249 12.5817 29.9183 13.0882 29.2811 13.0882C28.6438 13.0882 28.1373 12.5817 28.1373 11.9445C28.1373 11.3072 28.6601 10.8007 29.2811 10.8007ZM29.2811 10.4085C28.4314 10.4085 27.7451 11.0948 27.7451 11.9445C27.7451 12.7941 28.4314 13.4804 29.2811 13.4804C30.1307 13.4804 30.817 12.7941 30.817 11.9445C30.817 11.0948 30.1307 10.4085 29.2811 10.4085Z" fill="black"/>
<path d="M22.0588 18.268C22.0588 18.268 17.8431 18.5948 14.9673 18.4314C14.8039 18.415 14.8039 18.2843 14.8039 18.1209L14.8202 17.8268C14.8202 17.8268 14.5098 17.9085 14.379 18.3333C14.3137 18.5621 14.2647 19.1176 14.281 19.4608C14.2973 19.6732 14.4444 19.8529 14.6568 19.8856C15.6045 20.049 17.1568 20.4412 21.4052 19.9019C21.4052 19.8856 21.9607 18.9542 22.0588 18.268Z" fill="black"/>
<path d="M37.9902 17.2222C37.304 16.6993 36.2746 16.3889 34.8693 16.7484C34.0687 16.9608 33.121 17.3856 32.0425 18.1046C26.7648 21.6667 21.4053 19.8856 21.4053 19.8856C21.4053 19.8856 21.5687 19.085 22.1569 18.1046C23.0229 16.6667 24.8203 14.8366 28.4314 14.6078C31.6014 14.4118 33.938 15.0163 35.5229 15.7026C37.0915 16.3889 37.9085 17.1405 37.9902 17.2222Z" fill="white"/>
<path d="M38.1863 17.3856C38.0882 17.4346 37.8922 17.4346 37.7941 17.3693C37.7451 17.3529 37.7288 17.3203 37.6961 17.3039C36.5686 16.5359 35.1144 16.781 33.9052 17.2876C32.5654 17.8595 31.4052 18.8235 30.049 19.3627C27.3366 20.5065 24.232 20.7353 21.3889 19.9183C21.3725 19.9183 21.3562 19.8856 21.3562 19.8693C21.6176 18.219 22.7288 16.781 24.0686 15.8333C25.4412 14.8693 27.1242 14.4608 28.7745 14.3791C31.6503 14.232 34.6569 14.7222 37.1405 16.2745C37.451 16.4706 37.7614 16.683 38.0392 16.9281L38.1046 16.9771L38.1372 17.0098C38.1863 17.0425 38.2026 17.0915 38.2189 17.1569C38.2353 17.2712 38.2026 17.3529 38.1863 17.3856ZM37.8105 17.0588C37.7778 17.0915 37.7288 17.1569 37.7451 17.2549C37.7614 17.3039 37.7778 17.3529 37.8105 17.3856L37.7778 17.3693C37.5 17.1242 37.2059 16.9118 36.8954 16.7157C33.7418 14.6732 27.5163 13.9706 24.3301 16.1928C23.0229 17.0752 22.0915 18.4477 21.6176 19.9346L21.4869 19.7059C24.2484 20.4739 27.3039 20.1961 29.9183 19.0523C31.2745 18.4804 32.3856 17.5 33.7418 16.9118C35.0327 16.3235 36.7157 16.0621 37.9738 16.9118L38.0065 16.9281C38.0229 16.9444 38.0065 16.9281 37.9902 16.9281C37.9739 16.9281 37.9248 16.9281 37.8758 16.9608C37.8268 16.9771 37.8105 17.0261 37.8105 17.0588Z" fill="black"/>
<path d="M14.8692 18.2026C15.3431 18.3333 15.8986 18.317 16.3888 18.3497C17.9574 18.3824 19.5261 18.2843 21.111 18.2026C21.1927 18.2026 21.2254 18.3333 21.1274 18.3497C19.4771 18.6111 16.2908 19.0523 14.7875 18.3497C14.6731 18.3007 14.7548 18.1536 14.8692 18.2026Z" fill="white"/>
<path d="M18.7908 10.8497C18.6601 10.9968 18.4477 11.1438 18.3987 11.2909C18.3987 11.2909 18.3987 11.2909 18.3987 11.2746C18.3987 11.2582 18.3987 11.2419 18.3823 11.2419C18.3823 11.2255 18.366 11.2255 18.366 11.2255C18.415 11.2419 18.464 11.2419 18.5294 11.2419C19.1013 11.2419 20 11.0785 20.6046 11.0131C20.9477 10.9641 21.3072 10.9151 21.6667 10.8824C21.683 10.8824 21.6993 10.8987 21.6993 10.9151C21.6993 10.9314 21.683 10.9478 21.683 10.9478C21.0131 11.1929 20.3268 11.3726 19.6242 11.5033C19.2157 11.5687 18.7908 11.6667 18.366 11.585C18.0392 11.5196 17.9902 11.2255 18.2516 11.0458C18.3006 10.9478 18.8725 10.67 18.7908 10.8497Z" fill="white"/>
</g>
<rect x="0.5" y="0.5" width="49" height="49" rx="3.5" stroke="black"/>
<defs>
<clipPath id="clip0_196_1164">
<rect width="50" height="50" rx="4" fill="white"/>
</clipPath>
</defs>
</svg>
