<svg width="50" height="50" viewBox="0 0 50 50" fill="none" xmlns="http://www.w3.org/2000/svg">
<g clip-path="url(#clip0_196_1174)">
<rect width="50" height="50" rx="4" fill="#3CDD3C"/>
<path d="M38.5784 45.4902C38.464 45.5719 38.3333 45.6536 38.2189 45.7353C38.0882 45.817 37.9738 45.8987 37.8431 45.9641C37.7287 46.0294 37.6307 46.0948 37.5163 46.1602C37.5 46.1765 37.4836 46.1765 37.4673 46.1928C37.0915 46.4216 36.6993 46.634 36.3072 46.8301C36.1928 46.8955 36.0621 46.9608 35.9477 47.0098C35.9477 47.0098 35.9313 47.0262 35.915 47.0262C35.7843 47.0915 35.6536 47.1569 35.5228 47.2223C35.2614 47.353 34.9836 47.4674 34.7222 47.5817C34.5915 47.6471 34.4444 47.6961 34.3137 47.7451C34.183 47.7942 34.0359 47.8595 33.9052 47.9085C33.7745 47.9576 33.6274 48.0229 33.4967 48.0719C33.4967 48.0719 33.4967 48.0719 33.4804 48.0719C33.3496 48.121 33.2026 48.17 33.0719 48.219C32.7777 48.317 32.4673 48.4151 32.1732 48.5131C32.0751 48.5458 31.9607 48.5785 31.8627 48.6111C31.5523 48.7092 31.2418 48.7909 30.9313 48.8562C30.817 48.8889 30.7026 48.9053 30.5719 48.9379C30.2777 49.0033 29.9673 49.0687 29.6732 49.134C29.6078 49.1504 29.5588 49.1504 29.4934 49.1667C29.3954 49.183 29.281 49.1994 29.183 49.2157C29.0359 49.2321 28.9052 49.2647 28.7581 49.2811C28.6928 49.2974 28.6274 49.2974 28.5621 49.3138C28.4804 49.3301 28.3823 49.3464 28.2843 49.3464C28.0228 49.3791 27.7451 49.4118 27.4836 49.4445C27.4019 49.4608 27.3039 49.4608 27.2222 49.4772H27.2058C27.0915 49.4935 26.9771 49.4935 26.8627 49.5098C26.7483 49.5262 26.634 49.5262 26.5196 49.5262C26.4542 49.5262 26.3725 49.5425 26.3072 49.5425C26.1764 49.5425 26.0621 49.5589 25.9477 49.5589C25.7843 49.5589 25.6372 49.5752 25.4738 49.5752C25.3104 49.5752 25.1634 49.5752 25 49.5752C24.8856 49.5752 24.7712 49.5752 24.6568 49.5752C17.7614 49.4772 11.5686 46.5523 7.14049 41.9118C7.14049 41.9118 7.14049 41.8955 7.12415 41.8955C6.63395 41.4543 7.05879 39.1013 9.03591 37.6144C11.5196 35.7353 17.4673 34.5589 17.4673 34.5589C17.4673 34.5589 19.7712 34.183 28.317 35.9641C33.317 37.0098 37.1241 38.5294 39.2483 42.6471C39.6895 43.4968 40.1307 44.804 38.5784 45.4902Z" fill="white"/>
<path d="M28.3661 35.7843C31.5033 36.4216 34.853 37.1079 37.4347 39.183C38.3007 39.8856 38.8726 40.9151 39.3465 41.9118C39.5752 42.402 39.804 42.9085 39.9837 43.4477C40.0818 43.8072 40.2288 44.2157 40.1471 44.6405C40.1308 44.7549 40.0327 44.902 39.951 44.9837C39.5752 45.3595 39.1667 45.5883 38.7582 45.8824C36.3563 47.549 33.5948 48.7255 30.7354 49.3464C24.3628 50.7353 17.4674 49.6569 11.8628 46.3072C10.0001 45.1798 8.28438 43.8072 6.81379 42.1896C6.65039 41.9935 6.65039 41.6667 6.65039 41.4543C6.66673 40.9641 6.79745 40.4902 6.96085 40.049C7.353 39.036 7.85954 38.0229 8.72555 37.3203C9.34647 36.8954 10.0164 36.536 10.7027 36.2418C12.8595 35.3268 15.1308 34.6896 17.4674 34.4281C17.6635 34.4118 17.6961 34.6896 17.5001 34.7222C15.2615 35.1798 13.0393 35.866 10.9641 36.7974C10.2125 37.1732 9.41183 37.5 8.80725 38.0883C8.23536 38.7092 7.82686 39.4771 7.50006 40.2615C7.28765 40.7353 7.14059 41.4869 7.20595 41.8628C8.23536 43.0883 9.44451 44.1667 10.7517 45.0981C17.9086 50.0981 28.7746 50.4249 36.389 46.2582C37.0752 45.8824 37.7452 45.4575 38.3824 45.0164C38.6929 44.8039 39.0197 44.6242 39.2648 44.3791C39.2811 44.3628 39.2648 44.3791 39.2648 44.3954C39.2648 44.4118 39.2484 44.4281 39.2484 44.4281C39.2648 44.232 39.1994 43.9706 39.1177 43.7092C38.8236 42.7615 38.3497 41.7647 37.8432 40.8987C37.0425 39.6079 35.6863 38.7909 34.3138 38.1373C33.3661 37.6961 32.3693 37.353 31.3563 37.0262C30.3432 36.6994 29.3138 36.4216 28.2844 36.1765C28.0229 36.1111 28.1046 35.7353 28.3661 35.7843Z" fill="black"/>
<path d="M37.4348 39.33C36.193 38.2026 32.2224 36.4379 29.2485 35.7189C27.9413 35.4085 24.8694 34.5098 22.5328 34.281C21.2747 34.1503 18.9544 34.4608 17.5002 34.5098C16.0949 34.5588 11.3564 35.5228 9.08512 37.1242C8.59492 37.4673 6.40538 39.6405 5.45767 45.2124C4.72237 49.5098 3.80734 55.0817 3.77466 56.9771H41.0132C41.6341 45.8987 38.7256 40.5065 37.4348 39.33Z" fill="white"/>
<path d="M37.1568 39.6405C36.4052 39.0033 35.4412 38.5131 34.5425 38.0882C33.1372 37.4183 31.6666 36.8464 30.1634 36.4052C28.6601 35.9967 27.0915 35.6046 25.5882 35.2451C24.5751 35.0163 23.5457 34.8203 22.5163 34.7059C21.5196 34.6242 20.4411 34.7386 19.4281 34.8039C18.6601 34.8693 17.8595 34.902 17.0751 34.9673C14.7876 35.2778 12.4673 35.8824 10.3758 36.8627C9.98363 37.0588 9.60782 37.2549 9.26468 37.5163C8.39866 38.3007 7.77775 39.3954 7.28755 40.4575C6.4869 42.2222 6.04572 44.1503 5.75161 46.0621C5.50651 47.5654 5.21239 49.2484 4.98363 50.7516C4.67317 52.8105 4.3137 54.902 4.21566 56.9771L3.79082 56.5523H41.013L40.5882 56.9444C40.817 52.4346 40.6209 47.7941 39.1993 43.464C38.7255 42.1242 38.1536 40.6863 37.1568 39.6405ZM37.7287 39.0196C38.3496 39.6078 38.7581 40.2778 39.1993 40.9804C40.4412 43.0229 41.0294 45.3431 41.3562 47.6961C41.8137 50.768 41.7974 53.9052 41.4542 56.9935C41.4542 57.2222 41.2581 57.402 41.0294 57.3856H3.80716C3.5784 57.3856 3.38232 57.1895 3.38232 56.9608C3.39866 56.4052 3.46402 55.8824 3.51304 55.3431C3.69278 53.7582 3.93788 52.1895 4.19932 50.6209C4.42808 49.1176 4.73853 47.4346 4.98363 45.9314C5.31043 43.9542 5.76795 41.9608 6.58494 40.1307C7.14049 38.9542 7.77775 37.7941 8.77448 36.9118C9.16664 36.6176 9.59148 36.3725 10.0327 36.1601C12.2385 35.1307 14.5915 34.5261 16.9771 34.183C17.7614 34.1176 18.5621 34.085 19.3627 34.0033C20.4412 33.9216 21.4869 33.8072 22.598 33.8889C23.6764 34.0033 24.7222 34.1993 25.7679 34.4281C27.3366 34.7876 28.8562 35.1634 30.4085 35.5882C31.9444 36.0457 33.4477 36.6176 34.9019 37.3039C35.8987 37.8268 36.8464 38.2843 37.7287 39.0196Z" fill="black"/>
<path d="M38.121 56.9771C37.0262 46.585 34.8693 41.2909 34.8693 41.2909C34.3628 38.4967 33.0229 36.2909 32.5981 36.0948C31.8301 35.7516 31.6994 35.866 31.6994 35.866C32.9412 37.549 33.5785 40.4085 33.7419 41.8954C29.0523 43.9379 20.3922 42.5163 17.3693 41.8628C16.3726 40.0817 14.4608 36.3562 12.7942 34.9346C12.6471 34.8203 12.451 34.8039 12.2876 34.8693C12.1569 34.9346 11.9772 35.049 11.8138 35.2451C11.7321 35.3431 11.7321 35.4739 11.8301 35.5719C11.8464 35.5882 11.8628 35.6046 11.8791 35.6209C14.6569 38.6601 16.1765 43.9706 15.8007 48.0719C15.1308 55.3595 13.8562 56.9608 13.8562 56.9608H38.121V56.9771Z" fill="white"/>
<path d="M37.8106 56.6993C37.6636 56.1438 37.5655 55.6046 37.5328 55.0327C37.0427 50.4085 36.3564 45.719 34.7224 41.3562L34.9511 41.4379C34.8695 41.4869 34.7714 41.4542 34.7224 41.3889C34.4936 40.2941 34.1668 39.2157 33.6766 38.2026C33.3498 37.549 33.023 36.8791 32.5165 36.3726C32.3204 36.2745 32.059 36.1928 31.8466 36.1275C31.8139 36.1111 31.7812 36.1111 31.7649 36.1111C31.7649 36.1111 31.7649 36.1111 31.7812 36.1111H31.7976C31.8139 36.1111 31.7976 36.1111 31.8302 36.0784L31.8629 35.768C32.01 36.0131 32.3368 36.6176 32.4512 36.8627C32.974 37.9575 33.3008 39.1503 33.5623 40.3268C33.6603 40.8497 33.7583 41.3889 33.8237 41.9281C33.8237 41.9771 33.8074 42.0098 33.7583 42.0425C31.1766 43.1209 28.3172 43.219 25.5557 43.1863C24.1668 43.1536 22.7779 43.0392 21.4054 42.8922C20.0328 42.7288 18.6603 42.5163 17.2878 42.2386C17.1897 42.2222 17.1244 42.1569 17.0753 42.0915C16.4054 40.8987 15.7845 39.7222 15.0982 38.5621C14.4283 37.4346 13.7257 36.2582 12.7779 35.3431L12.6145 35.1961C12.3858 35.0327 12.1244 35.3268 11.961 35.4739C11.9446 35.4902 11.9446 35.5065 11.961 35.5229L11.9773 35.5392C12.5002 36.1275 12.9577 36.7647 13.3662 37.4346C14.0851 38.6111 14.6407 39.8529 15.2289 41.0948C16.0786 43.0065 16.1113 45.1307 16.0949 47.1895C15.9969 49.232 15.7518 51.2745 15.425 53.2843C15.1472 54.6569 14.9021 56.0948 14.1668 57.3203L13.84 56.634C21.4708 56.5196 30.1636 56.585 37.8106 56.6993ZM38.4479 57.2712C30.6047 57.3856 21.6832 57.451 13.84 57.402L13.5132 56.7157C14.0034 55.8987 14.2322 54.951 14.4936 54.036C14.9185 52.4183 15.1962 50.768 15.3923 49.1013L15.5067 48.1046C15.8008 45.768 15.0492 43.4967 14.5427 41.2418C14.1505 39.281 13.1538 37.451 11.8466 35.9477L11.6832 35.768L11.6668 35.7516L11.6505 35.7353C11.5688 35.6373 11.5198 35.5229 11.5198 35.3922C11.5361 35.1634 11.7485 34.9837 11.9119 34.8529C12.2387 34.5752 12.6636 34.5261 12.9904 34.8529C13.5623 35.3431 14.0198 35.915 14.461 36.5033C15.6701 38.1373 16.6505 39.951 17.6309 41.732L17.4185 41.5686C20.0982 42.1405 22.827 42.549 25.5721 42.7288C28.2845 42.8595 31.1276 42.8595 33.6766 41.8137L33.6113 41.9281C33.5459 41.4052 33.4642 40.8824 33.3498 40.3595C33.1211 39.3301 32.7779 38.317 32.3204 37.3529C32.2387 37.1732 32.0427 36.8301 31.9446 36.6503C31.8139 36.4216 31.6505 36.2091 31.4871 36.0131C31.3891 35.8987 31.4544 35.7353 31.5525 35.6699C31.8793 35.5065 32.2551 35.7026 32.5655 35.817C32.6309 35.8497 32.7453 35.8987 32.8106 35.9477C33.3989 36.5033 33.7257 37.2876 34.0525 38.0065C34.2812 38.5294 34.461 39.0686 34.608 39.6078C34.7714 40.1471 34.8858 40.7026 34.9838 41.2582L34.7387 41.1438C34.8204 41.0948 34.9185 41.1111 34.9675 41.1928C36.0949 44.3627 36.8793 47.6634 37.5165 50.9641C37.7779 52.2876 37.9904 53.6111 38.2028 54.9346C38.3825 55.7026 38.4315 56.5196 38.4479 57.2712Z" fill="black"/>
<path d="M18.4967 45.5066C18.9299 45.5066 19.281 45.1554 19.281 44.7222C19.281 44.2891 18.9299 43.9379 18.4967 43.9379C18.0636 43.9379 17.7124 44.2891 17.7124 44.7222C17.7124 45.1554 18.0636 45.5066 18.4967 45.5066Z" fill="black"/>
<path d="M33.6111 44.5752C33.9901 44.5752 34.2974 44.2679 34.2974 43.8889C34.2974 43.5099 33.9901 43.2026 33.6111 43.2026C33.2321 43.2026 32.9248 43.5099 32.9248 43.8889C32.9248 44.2679 33.2321 44.5752 33.6111 44.5752Z" fill="black"/>
<path d="M29.9018 40.1307C29.5587 41.8137 27.3365 42.8268 23.5946 41.3072C19.7057 39.7386 18.0227 35.9967 17.5979 34.8856C19.9018 30.5719 18.3005 27.5817 18.3005 27.5817C23.611 27.1242 28.2515 33.3333 28.2515 33.3333L28.9705 36.4052C29.0358 36.6667 29.1665 36.8954 29.3626 37.0588C29.7057 37.6634 30.1142 39.0523 29.9018 40.1307Z" fill="white"/>
<path d="M17.5162 34.9346C17.8267 34.4607 18.0228 33.9052 18.1535 33.366C18.3986 32.2385 18.4803 31.0947 18.4966 29.9509V29.5261C18.4476 29.1013 18.3005 28.6601 18.1371 28.2679C17.9247 27.7451 18.6927 27.4183 18.9378 27.9411C18.9705 28.0065 18.9705 28.1209 18.9705 28.1862C19.0195 30.4085 19.1175 33.2679 17.7123 35.1143C17.6143 35.2124 17.4182 35.0653 17.5162 34.9346Z" fill="black"/>
<path d="M28.4313 33.3007C28.6764 33.4477 28.7581 33.6438 28.7908 33.8399C28.8888 34.232 28.8561 34.6569 28.9542 35.0654C29.0359 35.4575 29.281 35.8333 29.3463 36.2418C29.428 36.6667 29.6731 37.5654 29.7712 38.0066C29.8038 38.1046 29.7385 38.219 29.6241 38.2353C29.5587 38.2516 29.5097 38.2353 29.4607 38.2026C29.2483 38.0229 29.1502 37.8431 29.0195 37.6144C28.8071 37.2222 28.66 36.8628 28.5293 36.4216C28.4149 36.0294 28.464 35.6046 28.3659 35.1961C28.2842 34.8039 28.0555 34.4281 27.9738 34.0196C27.9248 33.8235 27.9084 33.6111 28.0555 33.366C28.1535 33.268 28.3169 33.2353 28.4313 33.3007Z" fill="black"/>
<path d="M29.6077 37.6144C26.4868 37.451 23.9378 36.4706 21.4541 32.0425C23.5456 33.8889 26.0129 34.5915 28.611 34.9183L28.9541 36.4216C29.0195 36.683 29.4116 37.451 29.6077 37.6144Z" fill="black"/>
<path d="M29.4771 37.0098C30.0326 38.0556 30.3594 39.3628 30.0163 40.5229C29.7549 41.3399 29.0032 41.9445 28.1862 42.1732C26.2908 42.6798 24.1013 41.8791 22.4182 40.9804C20.3431 39.8203 18.8071 37.8758 17.8267 35.7516C17.7614 35.5882 17.9901 35.4575 18.0882 35.6209C18.4313 36.3072 18.8235 36.9771 19.2647 37.5817C19.7058 38.2026 20.2124 38.7745 20.7843 39.2811C22.4509 40.7843 24.7058 41.7157 26.9607 41.7157C29.281 41.6503 30.1633 40.4249 29.6241 38.1699C29.5424 37.8105 29.4117 37.4347 29.232 37.1242C29.1339 36.9935 29.379 36.8464 29.4771 37.0098Z" fill="black"/>
<path d="M35.8005 17.3856C36.0947 18.7581 35.1143 20.2287 35.1143 23.8889C35.1143 27.6307 34.428 31.6993 31.6012 34.5261C29.1666 36.9608 26.3724 36.8627 23.0881 34.2974C22.6306 33.9379 21.0293 32.7287 20.6208 32.3202C20.147 31.8464 19.8855 31.5032 19.6568 31.1438C19.4607 30.817 19.5097 28.9215 19.2319 28.4804C18.513 27.2876 18.3659 28.5784 17.4345 27.5327C16.1437 26.1274 14.5914 23.3006 15.3594 18.3006C16.6012 10.196 23.0228 9.24833 27.7777 10.147C32.5653 11.0621 35.0162 13.7745 35.8005 17.3856Z" fill="white"/>
<path d="M18.2515 28.9869C17.8757 28.366 17.4018 27.8105 16.9606 27.2386C16.5195 26.634 16.16 25.9967 15.8659 25.3105C14.1992 21.2745 14.4443 15.9967 17.4018 12.598C19.4279 10.2778 22.6306 9.5098 25.5717 9.6732C28.5129 9.85294 31.5685 10.6046 33.7417 12.7288C34.9998 13.9542 35.8005 15.5882 36.16 17.2876C36.2744 17.8268 36.1927 18.415 36.0619 18.9216C35.6861 20.3431 35.3266 21.6993 35.294 23.1699C35.3103 25.3595 35.2449 27.598 34.6077 29.7059C34.1502 31.1111 33.611 32.5163 32.7613 33.7418C31.8789 34.9837 30.5554 35.9804 29.0358 36.2745C25.9802 36.8954 23.1208 34.9673 21.0946 32.8758C21.0129 32.7778 21.1273 32.6634 21.2253 32.7288C22.3855 33.6111 23.5783 34.4281 24.8691 34.9837C28.5946 36.6993 31.6828 35.1144 33.3168 31.5196C34.6894 28.9052 35.0815 26.0784 34.9672 23.1536C34.9672 22.4183 34.9998 21.683 35.0979 20.9477C35.1959 19.8856 35.5554 18.8235 35.5391 17.7778C35.2613 16.0784 34.477 14.4444 33.3005 13.1863C30.5064 10.2288 25.1469 9.36274 21.3887 10.7026C16.9606 12.2712 15.7678 16.732 15.5227 20.9967C15.3593 23.5457 16.111 26.0457 18.0391 27.7941L18.807 28.5948C19.0685 28.9542 18.5129 29.3791 18.2515 28.9869Z" fill="black"/>
<path d="M20.1797 23.7909C20.1797 23.7909 19.6732 21.3399 17.2876 21.634C15.2288 21.8954 14.5098 26.8301 19.183 28.2026" fill="white"/>
<path d="M18.9705 26.0621C18.5947 25.8497 18.3333 25.4902 18.3169 25.049C18.3333 24.7222 18.3823 24.3464 18.3006 24.0196C18.2516 23.7092 17.9248 23.6275 17.6797 23.6438C17.4182 23.6928 17.2548 24.0196 17.2058 24.2811C17.2058 24.2974 17.1895 24.3464 17.1895 24.3628C17.1731 24.4445 17.0424 24.4445 17.0097 24.3628C16.7973 23.7255 17.2712 23.0229 17.9574 23.1046C18.9215 23.17 19.0522 24.183 18.8725 24.951C18.7744 25.2778 18.9051 25.5719 19.0849 25.8497L19.1176 25.8987C19.1993 25.9967 19.0685 26.1275 18.9705 26.0621Z" fill="black"/>
<path d="M32.0425 22.0588C32.2876 23.219 32.7451 24.2974 33.317 25.3105C33.8236 26.5523 32.5164 27.7288 31.3562 27.6797C31.2255 27.6797 31.2092 27.5 31.3236 27.4673C32.0589 27.2386 32.7288 26.7484 32.8432 25.9967C32.8922 25.768 32.8268 25.5719 32.7124 25.3758C32.1732 24.3628 31.8464 23.2026 31.9281 22.0588C31.9281 21.9771 32.0425 21.9771 32.0425 22.0588Z" fill="black"/>
<path d="M20.0981 23.8072C19.7223 22.8431 18.9053 21.9281 17.8105 21.9444C17.7125 21.9281 17.5491 21.9608 17.451 21.9608C17.1733 21.9771 16.9445 22.0751 16.7321 22.2712C15.6863 23.317 15.8661 25.1634 16.7157 26.3235C17.0099 26.732 17.3857 27.0915 17.8105 27.3856C18.2354 27.6797 18.7092 27.9085 19.2157 28.1046C19.3301 28.1372 19.2811 28.317 19.1667 28.3006C18.072 28.0719 17.0262 27.5327 16.3073 26.634C15.1961 25.2941 14.9674 23.0555 16.2909 21.7483C16.585 21.4869 16.9935 21.2908 17.402 21.2908C17.5327 21.2908 17.7288 21.2582 17.8595 21.2908C18.5458 21.3235 19.1994 21.6666 19.6242 22.2059C20.0001 22.6634 20.2125 23.2189 20.2778 23.7745C20.2778 23.8725 20.1308 23.9052 20.0981 23.8072Z" fill="black"/>
<path d="M30.8006 29.3137C29.7549 30.3104 27.7777 29.5098 27.2549 28.3006C27.1895 28.1536 27.3529 28.0228 27.4836 28.0882C27.7614 28.2353 28.0065 28.3823 28.2679 28.4967C29.0196 28.8398 29.8039 29.1176 30.6372 29.0359C30.8006 29.0032 30.915 29.1993 30.8006 29.3137Z" fill="black"/>
<path d="M25.9478 23.7255C25.5557 23.7091 25.2615 23.3823 25.2942 22.9902L25.3106 22.5327C25.3269 22.1405 25.6537 21.8464 26.0459 21.8791C26.438 21.8954 26.7321 22.2222 26.6995 22.6144L26.6831 23.0719C26.6668 23.4477 26.34 23.7418 25.9478 23.7255Z" fill="black"/>
<path d="M32.8267 23.9706C32.4672 23.9543 32.1894 23.6438 32.2058 23.2844L32.2221 22.8595C32.2384 22.5 32.5489 22.2223 32.9084 22.2386C33.2679 22.2549 33.5456 22.5654 33.5293 22.9249L33.513 23.3497C33.4966 23.7092 33.1862 23.987 32.8267 23.9706Z" fill="black"/>
<path d="M27.4185 22.8431C26.8792 22.4837 26.291 22.2386 25.6374 22.3693C25.425 22.402 25.2126 22.4673 25.0819 22.6144C25.0328 22.6797 24.9185 22.6634 24.9185 22.5654C24.9348 22.2386 25.2126 22.0261 25.474 21.8954C25.9805 21.634 26.6832 21.683 27.1407 22.0261C27.3041 22.1242 27.8596 22.7288 27.5655 22.8595C27.5002 22.8922 27.4675 22.8758 27.4185 22.8431Z" fill="black"/>
<path d="M32.0916 22.9248C32.0916 22.2386 32.9412 21.9935 33.4641 22.2386C33.7582 22.3693 33.9706 22.6307 34.0523 22.9412C34.085 23.0392 33.938 23.1209 33.8726 23.0392C33.5948 22.7124 33.121 22.549 32.7451 22.7451C32.6308 22.8105 32.6144 22.8595 32.5817 22.9248C32.5817 23.2516 32.1079 23.2353 32.0916 22.9248Z" fill="black"/>
<path d="M28.2027 20.1471C28.5458 20.2615 28.8889 19.951 28.8236 19.5752C28.7909 19.3791 28.7092 19.183 28.5458 19.036C28.0556 18.5948 26.0295 18.2026 24.804 18.7745C23.7255 19.2974 26.634 19.6242 28.2027 20.1471Z" fill="black"/>
<path d="M33.0883 20.4085C32.8105 20.5065 32.5164 20.2124 32.5654 19.8693C32.5818 19.6896 32.6471 19.5098 32.7779 19.3791C33.17 18.9869 34.5099 18.6765 35.3596 19.2811C36.0949 19.7876 34.3628 19.9347 33.0883 20.4085Z" fill="black"/>
<path d="M36.7319 15.1634C37.4182 14.3955 37.843 13.3824 37.843 12.2713C37.843 9.86931 35.8986 7.92487 33.4966 7.92487C31.8463 7.92487 30.4084 8.85624 29.6731 10.2124C26.6339 9.19938 23.8071 9.21572 21.4541 10.0164C20.5718 8.7582 19.1175 7.92487 17.4672 7.92487C14.7875 7.92487 12.6306 10.0981 12.6306 12.7615C12.6306 14.5589 13.611 16.1438 15.0816 16.9772C13.5293 22.7288 16.0456 26.6667 17.3365 28.219C18.6437 29.7876 18.7581 30.9804 18.7581 30.9804C19.428 30.6046 18.6437 28.9216 18.66 28.0392C14.5751 26.4706 15.3104 21.9118 17.3038 21.6504C19.3953 21.3889 20.0489 23.2517 20.1633 23.7092C20.5555 23.2517 20.6372 21.1928 20.8986 19.2647L21.0456 22.0589C21.0456 22.0589 24.6568 21.6504 28.709 21.6177C28.7581 20.9151 28.8724 19.5752 28.8398 18.9379C28.8398 18.9379 29.1829 20.3922 29.33 21.6177C29.4934 21.6177 29.6404 21.6177 29.8038 21.6177C30.0489 21.6177 30.3104 21.6177 30.6045 21.634C30.6535 21.0458 30.7515 20 30.7515 19.5262C30.7515 19.5262 30.9476 20.67 31.0293 21.6504C32.1404 21.683 33.4313 21.7484 34.5751 21.8955C34.6404 21.4706 34.8202 20.3595 34.8528 19.6896C34.8528 19.6896 35.1306 20.67 35.0162 21.9608C35.2777 21.9935 35.5391 22.0425 35.7679 22.0915C35.7515 22.2386 35.6535 22.7124 35.6535 22.7124C36.2908 22.8105 36.9607 22.4183 36.9607 22.4183C36.928 22.402 37.9411 19.0687 36.7319 15.1634Z" fill="black"/>
<path d="M18.3497 24.2974C18.3497 24.2974 17.0425 24.1013 17.1405 25.9314C17.1895 26.8627 17.1895 27.3693 17.1732 27.6307C17.1568 27.8104 17.2712 27.9738 17.4346 28.0392C17.6307 28.1209 17.8431 28.0392 17.9412 27.8431C18.0882 27.5817 18.2516 27.2222 18.2516 26.9281C18.2516 26.4379 18.7745 25.9967 18.7745 25.9967C18.7745 25.9967 18.3006 25.5882 18.3497 24.2974Z" fill="black"/>
<path d="M18.3006 24.3464C18.3006 24.3627 18.3169 24.3791 18.3333 24.3791C18.3333 24.3791 18.3333 24.3791 18.3169 24.3791H18.2843C17.4999 24.4444 17.2548 25.1307 17.2875 25.8333C17.3039 26.2908 17.3365 26.7484 17.3202 27.1895C17.3529 27.4346 17.2058 27.7614 17.4509 27.8921C17.598 27.9738 17.7941 27.9085 17.8594 27.7451C18.0065 27.451 18.1535 27.1569 18.1535 26.8301C18.2189 26.4542 18.464 26.1601 18.7254 25.9314V26.0621C18.3823 25.7026 18.3006 25.2124 18.2516 24.7549C18.2679 24.6405 18.2679 24.4608 18.3006 24.3464ZM18.415 24.232C18.464 24.6895 18.464 25.1634 18.6601 25.5719C18.7091 25.6863 18.7908 25.817 18.8888 25.8987C18.9542 25.9477 18.9542 26.0457 18.8888 26.0948C18.6601 26.3072 18.464 26.5686 18.4313 26.8627C18.4313 27.2222 18.2843 27.5654 18.1209 27.8758C17.9901 28.1536 17.6143 28.3006 17.3365 28.1372C17.1568 28.0392 17.0261 27.8431 17.0261 27.6307C17.0261 27.4673 17.0424 27.3366 17.0424 27.1732C17.0424 26.7157 17.0097 26.2745 16.9934 25.817C16.9934 25.5229 17.0097 25.1797 17.1405 24.8856C17.3039 24.4281 17.8104 24.1176 18.3006 24.1993C18.3496 24.1993 18.3986 24.2157 18.415 24.232Z" fill="black"/>
<path d="M18.1373 43.6438C18.6765 41.2908 17.9739 38.6438 17.3693 36.2908C17.1242 35.3595 16.8791 34.4771 16.7647 33.7091C16.5523 32.4183 16.6994 31.1928 17.2223 30.049C17.8595 28.6274 17.7615 27.4183 17.7615 27.3693L17.4347 27.4019C17.4347 27.4183 17.5327 28.5948 16.9281 29.9183C16.3889 31.1111 16.2255 32.4019 16.4379 33.7582C16.5687 34.5425 16.7974 35.4412 17.0425 36.3725C17.6471 38.6765 18.3334 41.2908 17.8105 43.5621C17.5164 44.8202 18.0883 46.8791 18.9053 48.9379C19.036 48.9542 19.1504 48.9706 19.2811 48.9869C18.4478 46.9281 17.8595 44.8529 18.1373 43.6438Z" fill="black"/>
<path d="M17.1895 26.8791C17.2059 27.2385 17.1895 27.4836 17.1895 27.6307C17.1732 27.8104 17.2876 27.9738 17.451 28.0392C17.6471 28.1209 17.8595 28.0392 17.9575 27.8431C18.1046 27.5817 18.268 27.2222 18.268 26.9281C18.268 26.9118 18.268 26.8791 18.268 26.8627C17.9412 26.9935 17.549 27.0915 17.1895 26.8791Z" fill="black"/>
<path d="M17.2386 26.9444C17.2549 27.1732 17.2712 27.3856 17.2712 27.6144C17.2549 27.7124 17.2876 27.8105 17.3529 27.8922C17.5653 28.1046 17.8595 27.9739 17.9412 27.7124C18.0719 27.451 18.1863 27.1732 18.1863 26.8791L18.3006 26.9608C17.9412 27.0261 17.5653 27.1242 17.2222 26.9771C17.2222 26.9771 17.2386 26.9608 17.2386 26.9444ZM17.1569 26.7974C17.1895 26.7974 17.2549 26.8137 17.2876 26.8464C17.5817 27.0588 17.9575 26.9608 18.2516 26.7974C18.3006 26.7647 18.3823 26.8137 18.366 26.8791C18.3497 27.2549 18.2026 27.6144 18.0065 27.9412C17.8268 28.1863 17.451 28.2026 17.2386 27.9902C17.1405 27.8922 17.0915 27.7288 17.1078 27.598C17.1078 27.3203 17.1405 27.0588 17.1569 26.7974Z" fill="black"/>
<path d="M32.5817 37.7451C32.8595 35.817 32.598 34.4444 32.5 34.0359C32.451 34.0686 32.4183 34.1176 32.3693 34.1503C32.3203 34.1993 32.2712 34.232 32.2222 34.281C32.3203 34.8039 32.5 36.0458 32.2549 37.6961C32.1405 38.4641 32.1078 39.6732 32.0915 41.0784C32.0588 42.4346 31.634 45.817 31.1274 49.0196C31.2418 48.9869 31.3562 48.9543 31.4706 48.9379C31.9771 45.768 32.3856 42.451 32.4183 41.0948C32.451 39.6895 32.4673 38.4967 32.5817 37.7451Z" fill="black"/>
</g>
<rect x="0.5" y="0.5" width="49" height="49" rx="3.5" stroke="black"/>
<defs>
<clipPath id="clip0_196_1174">
<rect width="50" height="50" rx="4" fill="white"/>
</clipPath>
</defs>
</svg>
