<svg width="65" height="32" viewBox="0 0 65 32" fill="none" xmlns="http://www.w3.org/2000/svg">
<g clip-path="url(#clip0_62_665)">
<path d="M32.6665 26C27.1435 26 22.6665 21.523 22.6665 16C22.6665 10.477 27.1435 6 32.6665 6C38.1895 6 42.6665 10.477 42.6665 16C42.6665 21.523 38.1895 26 32.6665 26ZM32.6665 24C34.7882 24 36.8231 23.1571 38.3234 21.6569C39.8237 20.1566 40.6665 18.1217 40.6665 16C40.6665 13.8783 39.8237 11.8434 38.3234 10.3431C36.8231 8.84285 34.7882 8 32.6665 8C30.5448 8 28.5099 8.84285 27.0096 10.3431C25.5094 11.8434 24.6665 13.8783 24.6665 16C24.6665 18.1217 25.5094 20.1566 27.0096 21.6569C28.5099 23.1571 30.5448 24 32.6665 24ZM27.6665 17H29.6665C29.6665 17.7956 29.9826 18.5587 30.5452 19.1213C31.1078 19.6839 31.8709 20 32.6665 20C33.4622 20 34.2252 19.6839 34.7878 19.1213C35.3504 18.5587 35.6665 17.7956 35.6665 17H37.6665C37.6665 18.3261 37.1397 19.5979 36.202 20.5355C35.2644 21.4732 33.9926 22 32.6665 22C31.3404 22 30.0687 21.4732 29.131 20.5355C28.1933 19.5979 27.6665 18.3261 27.6665 17ZM28.6665 15C28.2687 15 27.8871 14.842 27.6058 14.5607C27.3245 14.2794 27.1665 13.8978 27.1665 13.5C27.1665 13.1022 27.3245 12.7206 27.6058 12.4393C27.8871 12.158 28.2687 12 28.6665 12C29.0643 12 29.4459 12.158 29.7272 12.4393C30.0085 12.7206 30.1665 13.1022 30.1665 13.5C30.1665 13.8978 30.0085 14.2794 29.7272 14.5607C29.4459 14.842 29.0643 15 28.6665 15ZM36.6665 15C36.2687 15 35.8871 14.842 35.6058 14.5607C35.3245 14.2794 35.1665 13.8978 35.1665 13.5C35.1665 13.1022 35.3245 12.7206 35.6058 12.4393C35.8871 12.158 36.2687 12 36.6665 12C37.0643 12 37.4459 12.158 37.7272 12.4393C38.0085 12.7206 38.1665 13.1022 38.1665 13.5C38.1665 13.8978 38.0085 14.2794 37.7272 14.5607C37.4459 14.842 37.0643 15 36.6665 15Z" fill="white"/>
</g>
<defs>
<clipPath id="clip0_62_665">
<rect width="24" height="24" fill="white" transform="translate(20.6665 4)"/>
</clipPath>
</defs>
</svg>
